<svg xmlns="http://www.w3.org/2000/svg" width="954" height="213" fill="none"><rect width="285" height="73" x=".5" y="70.5" fill="#573CFF" fill-opacity=".52" rx="13.5"/><rect width="285" height="73" x=".5" y="70.5" stroke="#573CFF" rx="13.5"/><path fill="#fff" d="M16.804 98.292v7.344h8.64v3.348h-8.64v7.668h9.72V120H12.7V94.944h13.824v3.348h-9.72zm38.787 1.548c1.56 0 2.952.324 4.176.972 1.248.648 2.22 1.608 2.916 2.88.72 1.272 1.08 2.808 1.08 4.608V120h-4.068v-11.088c0-1.776-.444-3.132-1.332-4.068-.888-.96-2.1-1.44-3.636-1.44s-2.76.48-3.672 1.44c-.888.936-1.332 2.292-1.332 4.068V120h-4.068v-11.088c0-1.776-.444-3.132-1.332-4.068-.888-.96-2.1-1.44-3.636-1.44s-2.76.48-3.672 1.44c-.888.936-1.332 2.292-1.332 4.068V120h-4.104v-19.836h4.104v2.268c.672-.816 1.524-1.452 2.556-1.908a8.103 8.103 0 0 1 3.312-.684c1.584 0 3 .336 4.248 1.008a6.89 6.89 0 0 1 2.88 2.916c.6-1.2 1.536-2.148 2.808-2.844a8.196 8.196 0 0 1 4.104-1.08zm12.026 10.152c0-1.992.408-3.756 1.224-5.292.84-1.536 1.968-2.724 3.384-3.564 1.44-.864 3.024-1.296 4.752-1.296 1.56 0 2.916.312 4.068.936 1.176.6 2.112 1.356 2.808 2.268v-2.88h4.14V120h-4.14v-2.952c-.696.936-1.644 1.716-2.844 2.34-1.2.624-2.568.936-4.104.936-1.704 0-3.264-.432-4.68-1.296-1.416-.888-2.544-2.112-3.384-3.672-.816-1.584-1.224-3.372-1.224-5.364zm16.236.072c0-1.368-.288-2.556-.864-3.564-.552-1.008-1.284-1.776-2.196-2.304a5.792 5.792 0 0 0-2.952-.792c-1.056 0-2.04.264-2.952.792-.912.504-1.656 1.26-2.232 2.268-.552.984-.828 2.16-.828 3.528 0 1.368.276 2.568.828 3.6.576 1.032 1.32 1.824 2.232 2.376.936.528 1.92.792 2.952.792 1.056 0 2.04-.264 2.952-.792.912-.528 1.644-1.296 2.196-2.304.576-1.032.864-2.232.864-3.6zm11.619-12.528c-.744 0-1.368-.252-1.872-.756s-.756-1.128-.756-1.872c0-.744.252-1.368.756-1.872s1.128-.756 1.872-.756a2.5 2.5 0 0 1 1.836.756c.504.504.756 1.128.756 1.872 0 .744-.252 1.368-.756 1.872a2.5 2.5 0 0 1-1.836.756zm2.016 2.628V120h-4.104v-19.836h4.104zm9.492-6.804V120h-4.104V93.36h4.104zm18.844 9.684a6.348 6.348 0 0 1 2.376-2.34c1.008-.576 2.196-.864 3.564-.864v4.248h-1.044c-1.608 0-2.832.408-3.672 1.224-.816.816-1.224 2.232-1.224 4.248V120h-4.104v-19.836h4.104v2.88zm27.892 6.552c0 .744-.048 1.416-.144 2.016h-15.156c.12 1.584.708 2.856 1.764 3.816s2.352 1.44 3.888 1.44c2.208 0 3.768-.924 4.68-2.772h4.428c-.6 1.824-1.692 3.324-3.276 4.5-1.56 1.152-3.504 1.728-5.832 1.728-1.896 0-3.6-.42-5.112-1.26-1.488-.864-2.664-2.064-3.528-3.6-.84-1.56-1.26-3.36-1.26-5.4 0-2.04.408-3.828 1.224-5.364.84-1.56 2.004-2.76 3.492-3.6 1.512-.84 3.24-1.26 5.184-1.26 1.872 0 3.54.408 5.004 1.224a8.618 8.618 0 0 1 3.42 3.456c.816 1.464 1.224 3.156 1.224 5.076zm-4.284-1.296c-.024-1.512-.564-2.724-1.62-3.636-1.056-.912-2.364-1.368-3.924-1.368-1.416 0-2.628.456-3.636 1.368-1.008.888-1.608 2.1-1.8 3.636h10.98zm6.955 1.764c0-2.04.408-3.828 1.224-5.364.84-1.56 1.992-2.76 3.456-3.6 1.464-.84 3.144-1.26 5.04-1.26 2.4 0 4.38.576 5.94 1.728 1.584 1.128 2.652 2.748 3.204 4.86h-4.428c-.36-.984-.936-1.752-1.728-2.304-.792-.552-1.788-.828-2.988-.828-1.68 0-3.024.6-4.032 1.8-.984 1.176-1.476 2.832-1.476 4.968s.492 3.804 1.476 5.004c1.008 1.2 2.352 1.8 4.032 1.8 2.376 0 3.948-1.044 4.716-3.132h4.428c-.576 2.016-1.656 3.624-3.24 4.824-1.584 1.176-3.552 1.764-5.904 1.764-1.896 0-3.576-.42-5.04-1.26-1.464-.864-2.616-2.064-3.456-3.6-.816-1.56-1.224-3.36-1.224-5.4zm41.134-.468c0 .744-.048 1.416-.144 2.016h-15.156c.12 1.584.708 2.856 1.764 3.816s2.352 1.44 3.888 1.44c2.208 0 3.768-.924 4.68-2.772h4.428c-.6 1.824-1.692 3.324-3.276 4.5-1.56 1.152-3.504 1.728-5.832 1.728-1.896 0-3.6-.42-5.112-1.26-1.488-.864-2.664-2.064-3.528-3.6-.84-1.56-1.26-3.36-1.26-5.4 0-2.04.408-3.828 1.224-5.364.84-1.56 2.004-2.76 3.492-3.6 1.512-.84 3.24-1.26 5.184-1.26 1.872 0 3.54.408 5.004 1.224a8.618 8.618 0 0 1 3.42 3.456c.816 1.464 1.224 3.156 1.224 5.076zm-4.284-1.296c-.024-1.512-.564-2.724-1.62-3.636-1.056-.912-2.364-1.368-3.924-1.368-1.416 0-2.628.456-3.636 1.368-1.008.888-1.608 2.1-1.8 3.636h10.98zm10.41-10.764c-.744 0-1.368-.252-1.872-.756s-.756-1.128-.756-1.872c0-.744.252-1.368.756-1.872s1.128-.756 1.872-.756a2.5 2.5 0 0 1 1.836.756c.504.504.756 1.128.756 1.872 0 .744-.252 1.368-.756 1.872a2.5 2.5 0 0 1-1.836.756zm2.016 2.628V120h-4.104v-19.836h4.104zm13.057 16.164 5.616-16.164h4.356L221.132 120h-4.896l-7.524-19.836h4.392l5.616 16.164zm31.254-6.732c0 .744-.048 1.416-.144 2.016h-15.156c.12 1.584.708 2.856 1.764 3.816s2.352 1.44 3.888 1.44c2.208 0 3.768-.924 4.68-2.772h4.428c-.6 1.824-1.692 3.324-3.276 4.5-1.56 1.152-3.504 1.728-5.832 1.728-1.896 0-3.6-.42-5.112-1.26-1.488-.864-2.664-2.064-3.528-3.6-.84-1.56-1.26-3.36-1.26-5.4 0-2.04.408-3.828 1.224-5.364.84-1.56 2.004-2.76 3.492-3.6 1.512-.84 3.24-1.26 5.184-1.26 1.872 0 3.54.408 5.004 1.224a8.618 8.618 0 0 1 3.42 3.456c.816 1.464 1.224 3.156 1.224 5.076zm-4.284-1.296c-.024-1.512-.564-2.724-1.62-3.636-1.056-.912-2.364-1.368-3.924-1.368-1.416 0-2.628.456-3.636 1.368-1.008.888-1.608 2.1-1.8 3.636h10.98zm6.955 1.692c0-1.992.408-3.756 1.224-5.292.84-1.536 1.968-2.724 3.384-3.564 1.44-.864 3.036-1.296 4.788-1.296 1.296 0 2.568.288 3.816.864 1.272.552 2.28 1.296 3.024 2.232V93.36h4.14V120h-4.14v-2.988c-.672.96-1.608 1.752-2.808 2.376-1.176.624-2.532.936-4.068.936-1.728 0-3.312-.432-4.752-1.296-1.416-.888-2.544-2.112-3.384-3.672-.816-1.584-1.224-3.372-1.224-5.364zm16.236.072c0-1.368-.288-2.556-.864-3.564-.552-1.008-1.284-1.776-2.196-2.304a5.792 5.792 0 0 0-2.952-.792c-1.056 0-2.04.264-2.952.792-.912.504-1.656 1.26-2.232 2.268-.552.984-.828 2.16-.828 3.528 0 1.368.276 2.568.828 3.6.576 1.032 1.32 1.824 2.232 2.376.936.528 1.92.792 2.952.792 1.056 0 2.04-.264 2.952-.792.912-.528 1.644-1.296 2.196-2.304.576-1.032.864-2.232.864-3.6z"/><path stroke="#573CFF" stroke-linecap="round" stroke-width="5" d="M303 107h77"/><path fill="#573CFF" d="M398.62 97.5v-3.744h7.488V120h-4.14V97.5h-3.348zm30.046-.216h-12.06v7.164c.504-.672 1.248-1.236 2.232-1.692a7.684 7.684 0 0 1 3.204-.684c2.016 0 3.648.432 4.896 1.296 1.272.864 2.172 1.956 2.7 3.276.552 1.32.828 2.712.828 4.176 0 1.776-.348 3.36-1.044 4.752-.672 1.368-1.692 2.448-3.06 3.24-1.344.792-3 1.188-4.968 1.188-2.616 0-4.716-.648-6.3-1.944-1.584-1.296-2.532-3.012-2.844-5.148h3.996c.264 1.128.852 2.028 1.764 2.7.912.648 2.052.972 3.42.972 1.704 0 2.976-.516 3.816-1.548.864-1.032 1.296-2.4 1.296-4.104 0-1.728-.432-3.048-1.296-3.96-.864-.936-2.136-1.404-3.816-1.404-1.176 0-2.172.3-2.988.9-.792.576-1.368 1.368-1.728 2.376h-3.888V93.684h15.84v3.6zm6.072 9.252c0-4.152.696-7.392 2.088-9.72 1.416-2.352 3.84-3.528 7.272-3.528 3.432 0 5.844 1.176 7.236 3.528 1.416 2.328 2.124 5.568 2.124 9.72 0 4.2-.708 7.488-2.124 9.864-1.392 2.352-3.804 3.528-7.236 3.528s-5.856-1.176-7.272-3.528c-1.392-2.376-2.088-5.664-2.088-9.864zm14.688 0c0-1.944-.132-3.588-.396-4.932-.24-1.344-.744-2.436-1.512-3.276-.768-.864-1.908-1.296-3.42-1.296s-2.652.432-3.42 1.296c-.768.84-1.284 1.932-1.548 3.276-.24 1.344-.36 2.988-.36 4.932 0 2.016.12 3.708.36 5.076.24 1.368.744 2.472 1.512 3.312.792.84 1.944 1.26 3.456 1.26s2.652-.42 3.42-1.26c.792-.84 1.308-1.944 1.548-3.312.24-1.368.36-3.06.36-5.076zm32.927-6.696c1.56 0 2.952.324 4.176.972 1.248.648 2.22 1.608 2.916 2.88.72 1.272 1.08 2.808 1.08 4.608V120h-4.068v-11.088c0-1.776-.444-3.132-1.332-4.068-.888-.96-2.1-1.44-3.636-1.44s-2.76.48-3.672 1.44c-.888.936-1.332 2.292-1.332 4.068V120h-4.068v-11.088c0-1.776-.444-3.132-1.332-4.068-.888-.96-2.1-1.44-3.636-1.44s-2.76.48-3.672 1.44c-.888.936-1.332 2.292-1.332 4.068V120h-4.104v-19.836h4.104v2.268c.672-.816 1.524-1.452 2.556-1.908a8.103 8.103 0 0 1 3.312-.684c1.584 0 3 .336 4.248 1.008a6.89 6.89 0 0 1 2.88 2.916c.6-1.2 1.536-2.148 2.808-2.844a8.196 8.196 0 0 1 4.104-1.08zm20.594 20.484c-1.56 0-2.964-.276-4.212-.828-1.224-.576-2.196-1.344-2.916-2.304a5.83 5.83 0 0 1-1.152-3.276h4.248c.072.84.468 1.548 1.188 2.124.744.552 1.668.828 2.772.828 1.152 0 2.04-.216 2.664-.648.648-.456.972-1.032.972-1.728 0-.744-.36-1.296-1.08-1.656-.696-.36-1.812-.756-3.348-1.188-1.488-.408-2.7-.804-3.636-1.188a6.527 6.527 0 0 1-2.448-1.764c-.672-.792-1.008-1.836-1.008-3.132 0-1.056.312-2.016.936-2.88.624-.888 1.512-1.584 2.664-2.088 1.176-.504 2.52-.756 4.032-.756 2.256 0 4.068.576 5.436 1.728 1.392 1.128 2.136 2.676 2.232 4.644h-4.104c-.072-.888-.432-1.596-1.08-2.124-.648-.528-1.524-.792-2.628-.792-1.08 0-1.908.204-2.484.612-.576.408-.864.948-.864 1.62 0 .528.192.972.576 1.332.384.36.852.648 1.404.864.552.192 1.368.444 2.448.756 1.44.384 2.616.78 3.528 1.188.936.384 1.74.96 2.412 1.728.672.768 1.02 1.788 1.044 3.06 0 1.128-.312 2.136-.936 3.024-.624.888-1.512 1.584-2.664 2.088-1.128.504-2.46.756-3.996.756zm105.821-11.556a2.501 2.501 0 0 0 0-3.536l-15.91-15.91a2.5 2.5 0 0 0-3.536 3.536L603.464 107l-14.142 14.142a2.501 2.501 0 0 0 3.536 3.536l15.91-15.91zM530 109.5h77v-5h-77v5z"/><rect width="198" height="54" x="624" y="3.5" fill="#F3F7FB" rx="26"/><path fill="url(#a)" d="M635.332 30.936c0-2.448.564-4.644 1.692-6.588 1.152-1.944 2.7-3.456 4.644-4.536 1.968-1.104 4.116-1.656 6.444-1.656 2.664 0 5.028.66 7.092 1.98 2.088 1.296 3.6 3.144 4.536 5.544h-4.932c-.648-1.32-1.548-2.304-2.7-2.952-1.152-.648-2.484-.972-3.996-.972-1.656 0-3.132.372-4.428 1.116-1.296.744-2.316 1.812-3.06 3.204-.72 1.392-1.08 3.012-1.08 4.86 0 1.848.36 3.468 1.08 4.86.744 1.392 1.764 2.472 3.06 3.24 1.296.744 2.772 1.116 4.428 1.116 1.512 0 2.844-.324 3.996-.972 1.152-.648 2.052-1.632 2.7-2.952h4.932c-.936 2.4-2.448 4.248-4.536 5.544-2.064 1.296-4.428 1.944-7.092 1.944-2.352 0-4.5-.54-6.444-1.62a12.481 12.481 0 0 1-4.644-4.572c-1.128-1.944-1.692-4.14-1.692-6.588zm33.316-14.076V43.5h-4.104V16.86h4.104zm4.02 16.632c0-1.992.408-3.756 1.224-5.292.84-1.536 1.968-2.724 3.384-3.564 1.44-.864 3.024-1.296 4.752-1.296 1.56 0 2.916.312 4.068.936 1.176.6 2.112 1.356 2.808 2.268v-2.88h4.14V43.5h-4.14v-2.952c-.696.936-1.644 1.716-2.844 2.34-1.2.624-2.568.936-4.104.936-1.704 0-3.264-.432-4.68-1.296-1.416-.888-2.544-2.112-3.384-3.672-.816-1.584-1.224-3.372-1.224-5.364zm16.236.072c0-1.368-.288-2.556-.864-3.564-.552-1.008-1.284-1.776-2.196-2.304a5.792 5.792 0 0 0-2.952-.792c-1.056 0-2.04.264-2.952.792-.912.504-1.656 1.26-2.232 2.268-.552.984-.828 2.16-.828 3.528 0 1.368.276 2.568.828 3.6.576 1.032 1.32 1.824 2.232 2.376.936.528 1.92.792 2.952.792 1.056 0 2.04-.264 2.952-.792.912-.528 1.644-1.296 2.196-2.304.576-1.032.864-2.232.864-3.6zm16.73 10.26c-1.56 0-2.964-.276-4.212-.828-1.224-.576-2.196-1.344-2.916-2.304a5.83 5.83 0 0 1-1.152-3.276h4.248c.072.84.468 1.548 1.188 2.124.744.552 1.668.828 2.772.828 1.152 0 2.04-.216 2.664-.648.648-.456.972-1.032.972-1.728 0-.744-.36-1.296-1.08-1.656-.696-.36-1.812-.756-3.348-1.188-1.488-.408-2.7-.804-3.636-1.188a6.527 6.527 0 0 1-2.448-1.764c-.672-.792-1.008-1.836-1.008-3.132 0-1.056.312-2.016.936-2.88.624-.888 1.512-1.584 2.664-2.088 1.176-.504 2.52-.756 4.032-.756 2.256 0 4.068.576 5.436 1.728 1.392 1.128 2.136 2.676 2.232 4.644h-4.104c-.072-.888-.432-1.596-1.08-2.124-.648-.528-1.524-.792-2.628-.792-1.08 0-1.908.204-2.484.612-.576.408-.864.948-.864 1.62 0 .528.192.972.576 1.332.384.36.852.648 1.404.864.552.192 1.368.444 2.448.756 1.44.384 2.616.78 3.528 1.188.936.384 1.74.96 2.412 1.728.672.768 1.02 1.788 1.044 3.06 0 1.128-.312 2.136-.936 3.024-.624.888-1.512 1.584-2.664 2.088-1.128.504-2.46.756-3.996.756zm19.231 0c-1.56 0-2.964-.276-4.212-.828-1.224-.576-2.196-1.344-2.916-2.304a5.83 5.83 0 0 1-1.152-3.276h4.248c.072.84.468 1.548 1.188 2.124.744.552 1.668.828 2.772.828 1.152 0 2.04-.216 2.664-.648.648-.456.972-1.032.972-1.728 0-.744-.36-1.296-1.08-1.656-.696-.36-1.812-.756-3.348-1.188-1.488-.408-2.7-.804-3.636-1.188a6.527 6.527 0 0 1-2.448-1.764c-.672-.792-1.008-1.836-1.008-3.132 0-1.056.312-2.016.936-2.88.624-.888 1.512-1.584 2.664-2.088 1.176-.504 2.52-.756 4.032-.756 2.256 0 4.068.576 5.436 1.728 1.392 1.128 2.136 2.676 2.232 4.644h-4.104c-.072-.888-.432-1.596-1.08-2.124-.648-.528-1.524-.792-2.628-.792-1.08 0-1.908.204-2.484.612-.576.408-.864.948-.864 1.62 0 .528.192.972.576 1.332.384.36.852.648 1.404.864.552.192 1.368.444 2.448.756 1.44.384 2.616.78 3.528 1.188.936.384 1.74.96 2.412 1.728.672.768 1.02 1.788 1.044 3.06 0 1.128-.312 2.136-.936 3.024-.624.888-1.512 1.584-2.664 2.088-1.128.504-2.46.756-3.996.756zm14.118-22.788c-.744 0-1.368-.252-1.872-.756s-.756-1.128-.756-1.872c0-.744.252-1.368.756-1.872s1.128-.756 1.872-.756a2.5 2.5 0 0 1 1.836.756c.504.504.756 1.128.756 1.872 0 .744-.252 1.368-.756 1.872a2.5 2.5 0 0 1-1.836.756zm2.016 2.628V43.5h-4.104V23.664h4.104zm13.705 3.348h-3.672V43.5h-4.14V27.012h-2.34v-3.348h2.34V22.26c0-2.28.6-3.936 1.8-4.968 1.224-1.056 3.132-1.584 5.724-1.584v3.42c-1.248 0-2.124.24-2.628.72-.504.456-.756 1.26-.756 2.412v1.404h3.672v3.348zm5.725-5.976c-.744 0-1.368-.252-1.872-.756s-.756-1.128-.756-1.872c0-.744.252-1.368.756-1.872s1.128-.756 1.872-.756a2.5 2.5 0 0 1 1.836.756c.504.504.756 1.128.756 1.872 0 .744-.252 1.368-.756 1.872a2.5 2.5 0 0 1-1.836.756zm2.016 2.628V43.5h-4.104V23.664h4.104zm23.568 9.432c0 .744-.048 1.416-.144 2.016h-15.156c.12 1.584.708 2.856 1.764 3.816s2.352 1.44 3.888 1.44c2.208 0 3.768-.924 4.68-2.772h4.428c-.6 1.824-1.692 3.324-3.276 4.5-1.56 1.152-3.504 1.728-5.832 1.728-1.896 0-3.6-.42-5.112-1.26-1.488-.864-2.664-2.064-3.528-3.6-.84-1.56-1.26-3.36-1.26-5.4 0-2.04.408-3.828 1.224-5.364.84-1.56 2.004-2.76 3.492-3.6 1.512-.84 3.24-1.26 5.184-1.26 1.872 0 3.54.408 5.004 1.224a8.618 8.618 0 0 1 3.42 3.456c.816 1.464 1.224 3.156 1.224 5.076zm-4.284-1.296c-.024-1.512-.564-2.724-1.62-3.636-1.056-.912-2.364-1.368-3.924-1.368-1.416 0-2.628.456-3.636 1.368-1.008.888-1.608 2.1-1.8 3.636h10.98zm6.955 1.692c0-1.992.408-3.756 1.224-5.292.84-1.536 1.968-2.724 3.384-3.564 1.44-.864 3.036-1.296 4.788-1.296 1.296 0 2.568.288 3.816.864 1.272.552 2.28 1.296 3.024 2.232V16.86h4.14V43.5h-4.14v-2.988c-.672.96-1.608 1.752-2.808 2.376-1.176.624-2.532.936-4.068.936-1.728 0-3.312-.432-4.752-1.296-1.416-.888-2.544-2.112-3.384-3.672-.816-1.584-1.224-3.372-1.224-5.364zm16.236.072c0-1.368-.288-2.556-.864-3.564-.552-1.008-1.284-1.776-2.196-2.304a5.792 5.792 0 0 0-2.952-.792c-1.056 0-2.04.264-2.952.792-.912.504-1.656 1.26-2.232 2.268-.552.984-.828 2.16-.828 3.528 0 1.368.276 2.568.828 3.6.576 1.032 1.32 1.824 2.232 2.376.936.528 1.92.792 2.952.792 1.056 0 2.04-.264 2.952-.792.912-.528 1.644-1.296 2.196-2.304.576-1.032.864-2.232.864-3.6z"/><path fill="#9E61E9" d="M864.417 41.683 854.25 31.517l3.558-3.559 6.609 6.609 16.775-16.775 3.558 3.558-20.333 20.333z"/><rect width="161" height="54" x="624" y="79.5" fill="#F3F7FB" rx="26"/><path fill="url(#b)" d="M652.864 94.48v3.348h-6.66V119.5H642.1V97.828h-6.696V94.48h17.46zm2.788 15.012c0-1.992.408-3.756 1.224-5.292.84-1.536 1.968-2.724 3.384-3.564 1.44-.864 3.024-1.296 4.752-1.296 1.56 0 2.916.312 4.068.936 1.176.6 2.112 1.356 2.808 2.268v-2.88h4.14V119.5h-4.14v-2.952c-.696.936-1.644 1.716-2.844 2.34-1.2.624-2.568.936-4.104.936-1.704 0-3.264-.432-4.68-1.296-1.416-.888-2.544-2.112-3.384-3.672-.816-1.584-1.224-3.372-1.224-5.364zm16.236.072c0-1.368-.288-2.556-.864-3.564-.552-1.008-1.284-1.776-2.196-2.304a5.792 5.792 0 0 0-2.952-.792c-1.056 0-2.04.264-2.952.792-.912.504-1.656 1.26-2.232 2.268-.552.984-.828 2.16-.828 3.528 0 1.368.276 2.568.828 3.6.576 1.032 1.32 1.824 2.232 2.376.936.528 1.92.792 2.952.792 1.056 0 2.04-.264 2.952-.792.912-.528 1.644-1.296 2.196-2.304.576-1.032.864-2.232.864-3.6zm17.523-10.224c1.536 0 2.892.312 4.068.936 1.2.6 2.136 1.356 2.808 2.268v-2.88h4.14v20.16c0 1.824-.384 3.444-1.152 4.86-.768 1.44-1.884 2.568-3.348 3.384-1.44.816-3.168 1.224-5.184 1.224-2.688 0-4.92-.636-6.696-1.908-1.776-1.248-2.784-2.952-3.024-5.112h4.068c.312 1.032.972 1.86 1.98 2.484 1.032.648 2.256.972 3.672.972 1.656 0 2.988-.504 3.996-1.512 1.032-1.008 1.548-2.472 1.548-4.392v-3.312c-.696.936-1.644 1.728-2.844 2.376-1.176.624-2.52.936-4.032.936-1.728 0-3.312-.432-4.752-1.296-1.416-.888-2.544-2.112-3.384-3.672-.816-1.584-1.224-3.372-1.224-5.364s.408-3.756 1.224-5.292c.84-1.536 1.968-2.724 3.384-3.564 1.44-.864 3.024-1.296 4.752-1.296zm6.876 10.224c0-1.368-.288-2.556-.864-3.564-.552-1.008-1.284-1.776-2.196-2.304a5.792 5.792 0 0 0-2.952-.792c-1.056 0-2.04.264-2.952.792-.912.504-1.656 1.26-2.232 2.268-.552.984-.828 2.16-.828 3.528 0 1.368.276 2.568.828 3.6.576 1.032 1.32 1.824 2.232 2.376.936.528 1.92.792 2.952.792 1.056 0 2.04-.264 2.952-.792.912-.528 1.644-1.296 2.196-2.304.576-1.032.864-2.232.864-3.6zm17.522-10.224c1.536 0 2.892.312 4.068.936 1.2.6 2.136 1.356 2.808 2.268v-2.88h4.14v20.16c0 1.824-.384 3.444-1.152 4.86-.768 1.44-1.884 2.568-3.348 3.384-1.44.816-3.168 1.224-5.184 1.224-2.688 0-4.92-.636-6.696-1.908-1.776-1.248-2.784-2.952-3.024-5.112h4.068c.312 1.032.972 1.86 1.98 2.484 1.032.648 2.256.972 3.672.972 1.656 0 2.988-.504 3.996-1.512 1.032-1.008 1.548-2.472 1.548-4.392v-3.312c-.696.936-1.644 1.728-2.844 2.376-1.176.624-2.52.936-4.032.936-1.728 0-3.312-.432-4.752-1.296-1.416-.888-2.544-2.112-3.384-3.672-.816-1.584-1.224-3.372-1.224-5.364s.408-3.756 1.224-5.292c.84-1.536 1.968-2.724 3.384-3.564 1.44-.864 3.024-1.296 4.752-1.296zm6.876 10.224c0-1.368-.288-2.556-.864-3.564-.552-1.008-1.284-1.776-2.196-2.304a5.792 5.792 0 0 0-2.952-.792c-1.056 0-2.04.264-2.952.792-.912.504-1.656 1.26-2.232 2.268-.552.984-.828 2.16-.828 3.528 0 1.368.276 2.568.828 3.6.576 1.032 1.32 1.824 2.232 2.376.936.528 1.92.792 2.952.792 1.056 0 2.04-.264 2.952-.792.912-.528 1.644-1.296 2.196-2.304.576-1.032.864-2.232.864-3.6zm27.711-.468c0 .744-.048 1.416-.144 2.016h-15.156c.12 1.584.708 2.856 1.764 3.816s2.352 1.44 3.888 1.44c2.208 0 3.768-.924 4.68-2.772h4.428c-.6 1.824-1.692 3.324-3.276 4.5-1.56 1.152-3.504 1.728-5.832 1.728-1.896 0-3.6-.42-5.112-1.26-1.488-.864-2.664-2.064-3.528-3.6-.84-1.56-1.26-3.36-1.26-5.4 0-2.04.408-3.828 1.224-5.364.84-1.56 2.004-2.76 3.492-3.6 1.512-.84 3.24-1.26 5.184-1.26 1.872 0 3.54.408 5.004 1.224a8.618 8.618 0 0 1 3.42 3.456c.816 1.464 1.224 3.156 1.224 5.076zm-4.284-1.296c-.024-1.512-.564-2.724-1.62-3.636-1.056-.912-2.364-1.368-3.924-1.368-1.416 0-2.628.456-3.636 1.368-1.008.888-1.608 2.1-1.8 3.636h10.98zm6.954 1.692c0-1.992.408-3.756 1.224-5.292.84-1.536 1.968-2.724 3.384-3.564 1.44-.864 3.036-1.296 4.788-1.296 1.296 0 2.568.288 3.816.864 1.272.552 2.28 1.296 3.024 2.232V92.86h4.14v26.64h-4.14v-2.988c-.672.96-1.608 1.752-2.808 2.376-1.176.624-2.532.936-4.068.936-1.728 0-3.312-.432-4.752-1.296-1.416-.888-2.544-2.112-3.384-3.672-.816-1.584-1.224-3.372-1.224-5.364zm16.236.072c0-1.368-.288-2.556-.864-3.564-.552-1.008-1.284-1.776-2.196-2.304a5.792 5.792 0 0 0-2.952-.792c-1.056 0-2.04.264-2.952.792-.912.504-1.656 1.26-2.232 2.268-.552.984-.828 2.16-.828 3.528 0 1.368.276 2.568.828 3.6.576 1.032 1.32 1.824 2.232 2.376.936.528 1.92.792 2.952.792 1.056 0 2.04-.264 2.952-.792.912-.528 1.644-1.296 2.196-2.304.576-1.032.864-2.232.864-3.6z"/><path fill="#9E61E9" d="m827.417 117.683-10.167-10.166 3.558-3.559 6.609 6.609 16.775-16.775 3.558 3.558-20.333 20.333z"/><rect width="252" height="54" x="624" y="155.5" fill="#F3F7FB" rx="26"/><path fill="url(#c)" d="M644.944 195.752c-1.68 0-3.192-.288-4.536-.864-1.344-.6-2.4-1.44-3.168-2.52-.768-1.08-1.152-2.34-1.152-3.78h4.392c.096 1.08.516 1.968 1.26 2.664.768.696 1.836 1.044 3.204 1.044 1.416 0 2.52-.336 3.312-1.008.792-.696 1.188-1.584 1.188-2.664 0-.84-.252-1.524-.756-2.052-.48-.528-1.092-.936-1.836-1.224-.72-.288-1.728-.6-3.024-.936-1.632-.432-2.964-.864-3.996-1.296-1.008-.456-1.872-1.152-2.592-2.088-.72-.936-1.08-2.184-1.08-3.744 0-1.44.36-2.7 1.08-3.78.72-1.08 1.728-1.908 3.024-2.484 1.296-.576 2.796-.864 4.5-.864 2.424 0 4.404.612 5.94 1.836 1.56 1.2 2.424 2.856 2.592 4.968h-4.536c-.072-.912-.504-1.692-1.296-2.34-.792-.648-1.836-.972-3.132-.972-1.176 0-2.136.3-2.88.9-.744.6-1.116 1.464-1.116 2.592 0 .768.228 1.404.684 1.908.48.48 1.08.864 1.8 1.152.72.288 1.704.6 2.952.936 1.656.456 3 .912 4.032 1.368 1.056.456 1.944 1.164 2.664 2.124.744.936 1.116 2.196 1.116 3.78 0 1.272-.348 2.472-1.044 3.6-.672 1.128-1.668 2.04-2.988 2.736-1.296.672-2.832 1.008-4.608 1.008zm31.447-20.088V195.5h-4.104v-2.34c-.648.816-1.5 1.464-2.556 1.944a8.103 8.103 0 0 1-3.312.684c-1.56 0-2.964-.324-4.212-.972-1.224-.648-2.196-1.608-2.916-2.88-.696-1.272-1.044-2.808-1.044-4.608v-11.664h4.068v11.052c0 1.776.444 3.144 1.332 4.104.888.936 2.1 1.404 3.636 1.404s2.748-.468 3.636-1.404c.912-.96 1.368-2.328 1.368-4.104v-11.052h4.104zm29.426-.324c1.56 0 2.952.324 4.176.972 1.248.648 2.22 1.608 2.916 2.88.72 1.272 1.08 2.808 1.08 4.608v11.7h-4.068v-11.088c0-1.776-.444-3.132-1.332-4.068-.888-.96-2.1-1.44-3.636-1.44s-2.76.48-3.672 1.44c-.888.936-1.332 2.292-1.332 4.068V195.5h-4.068v-11.088c0-1.776-.444-3.132-1.332-4.068-.888-.96-2.1-1.44-3.636-1.44s-2.76.48-3.672 1.44c-.888.936-1.332 2.292-1.332 4.068V195.5h-4.104v-19.836h4.104v2.268c.672-.816 1.524-1.452 2.556-1.908a8.103 8.103 0 0 1 3.312-.684c1.584 0 3 .336 4.248 1.008a6.89 6.89 0 0 1 2.88 2.916c.6-1.2 1.536-2.148 2.808-2.844a8.196 8.196 0 0 1 4.104-1.08zm37.407 0c1.56 0 2.952.324 4.176.972 1.248.648 2.22 1.608 2.916 2.88.72 1.272 1.08 2.808 1.08 4.608v11.7h-4.068v-11.088c0-1.776-.444-3.132-1.332-4.068-.888-.96-2.1-1.44-3.636-1.44s-2.76.48-3.672 1.44c-.888.936-1.332 2.292-1.332 4.068V195.5h-4.068v-11.088c0-1.776-.444-3.132-1.332-4.068-.888-.96-2.1-1.44-3.636-1.44s-2.76.48-3.672 1.44c-.888.936-1.332 2.292-1.332 4.068V195.5h-4.104v-19.836h4.104v2.268c.672-.816 1.524-1.452 2.556-1.908a8.103 8.103 0 0 1 3.312-.684c1.584 0 3 .336 4.248 1.008a6.89 6.89 0 0 1 2.88 2.916c.6-1.2 1.536-2.148 2.808-2.844a8.196 8.196 0 0 1 4.104-1.08zm12.026 10.152c0-1.992.408-3.756 1.224-5.292.84-1.536 1.968-2.724 3.384-3.564 1.44-.864 3.024-1.296 4.752-1.296 1.56 0 2.916.312 4.068.936 1.176.6 2.112 1.356 2.808 2.268v-2.88h4.14V195.5h-4.14v-2.952c-.696.936-1.644 1.716-2.844 2.34-1.2.624-2.568.936-4.104.936-1.704 0-3.264-.432-4.68-1.296-1.416-.888-2.544-2.112-3.384-3.672-.816-1.584-1.224-3.372-1.224-5.364zm16.236.072c0-1.368-.288-2.556-.864-3.564-.552-1.008-1.284-1.776-2.196-2.304a5.792 5.792 0 0 0-2.952-.792c-1.056 0-2.04.264-2.952.792-.912.504-1.656 1.26-2.232 2.268-.552.984-.828 2.16-.828 3.528 0 1.368.276 2.568.828 3.6.576 1.032 1.32 1.824 2.232 2.376.936.528 1.92.792 2.952.792 1.056 0 2.04-.264 2.952-.792.912-.528 1.644-1.296 2.196-2.304.576-1.032.864-2.232.864-3.6zm13.634-7.02a6.348 6.348 0 0 1 2.376-2.34c1.008-.576 2.196-.864 3.564-.864v4.248h-1.044c-1.608 0-2.832.408-3.672 1.224-.816.816-1.224 2.232-1.224 4.248v10.44h-4.104v-19.836h4.104v2.88zm11.801-5.508c-.744 0-1.368-.252-1.872-.756s-.756-1.128-.756-1.872c0-.744.252-1.368.756-1.872s1.128-.756 1.872-.756a2.5 2.5 0 0 1 1.836.756c.504.504.756 1.128.756 1.872 0 .744-.252 1.368-.756 1.872a2.5 2.5 0 0 1-1.836.756zm2.016 2.628V195.5h-4.104v-19.836h4.104zm9.024 16.488h9v3.348h-13.752v-3.348l9.036-13.14h-9.036v-3.348h13.752v3.348l-9 13.14zm31.489-7.056c0 .744-.048 1.416-.144 2.016H824.15c.12 1.584.708 2.856 1.764 3.816s2.352 1.44 3.888 1.44c2.208 0 3.768-.924 4.68-2.772h4.428c-.6 1.824-1.692 3.324-3.276 4.5-1.56 1.152-3.504 1.728-5.832 1.728-1.896 0-3.6-.42-5.112-1.26-1.488-.864-2.664-2.064-3.528-3.6-.84-1.56-1.26-3.36-1.26-5.4 0-2.04.408-3.828 1.224-5.364.84-1.56 2.004-2.76 3.492-3.6 1.512-.84 3.24-1.26 5.184-1.26 1.872 0 3.54.408 5.004 1.224a8.618 8.618 0 0 1 3.42 3.456c.816 1.464 1.224 3.156 1.224 5.076zm-4.284-1.296c-.024-1.512-.564-2.724-1.62-3.636-1.056-.912-2.364-1.368-3.924-1.368-1.416 0-2.628.456-3.636 1.368-1.008.888-1.608 2.1-1.8 3.636h10.98zm6.955 1.692c0-1.992.408-3.756 1.224-5.292.84-1.536 1.968-2.724 3.384-3.564 1.44-.864 3.036-1.296 4.788-1.296 1.296 0 2.568.288 3.816.864 1.272.552 2.28 1.296 3.024 2.232v-9.576h4.14v26.64h-4.14v-2.988c-.672.96-1.608 1.752-2.808 2.376-1.176.624-2.532.936-4.068.936-1.728 0-3.312-.432-4.752-1.296-1.416-.888-2.544-2.112-3.384-3.672-.816-1.584-1.224-3.372-1.224-5.364zm16.236.072c0-1.368-.288-2.556-.864-3.564-.552-1.008-1.284-1.776-2.196-2.304a5.792 5.792 0 0 0-2.952-.792c-1.056 0-2.04.264-2.952.792-.912.504-1.656 1.26-2.232 2.268-.552.984-.828 2.16-.828 3.528 0 1.368.276 2.568.828 3.6.576 1.032 1.32 1.824 2.232 2.376.936.528 1.92.792 2.952.792 1.056 0 2.04-.264 2.952-.792.912-.528 1.644-1.296 2.196-2.304.576-1.032.864-2.232.864-3.6z"/><path fill="#9E61E9" d="m918.417 193.683-10.167-10.166 3.558-3.559 6.609 6.609 16.775-16.775 3.558 3.558-20.333 20.333z"/><defs><linearGradient id="a" x1="634" x2="812" y1="30.5" y2="30.5" gradientUnits="userSpaceOnUse"><stop stop-color="#6F8BFE"/><stop offset="1" stop-color="#9E61E9"/></linearGradient><linearGradient id="b" x1="634" x2="775" y1="106.5" y2="106.5" gradientUnits="userSpaceOnUse"><stop stop-color="#6F8BFE"/><stop offset="1" stop-color="#9E61E9"/></linearGradient><linearGradient id="c" x1="634" x2="866" y1="182.5" y2="182.5" gradientUnits="userSpaceOnUse"><stop stop-color="#6F8BFE"/><stop offset="1" stop-color="#9E61E9"/></linearGradient></defs></svg>