<svg xmlns="http://www.w3.org/2000/svg" width="1079" height="483" fill="none"><g filter="url(#a)"><rect width="1031" height="435" x="24" y="24" fill="#F8F9FB" rx="14"/><rect width="1029" height="433" x="25" y="25" stroke="#573CFF" stroke-width="2" rx="13"/></g><rect width="72" height="40" x="969" y="405" fill="#573CFF" rx="11"/><path fill="#fff" d="M985.2 432.14c-.973 0-1.853-.167-2.64-.5-.773-.333-1.387-.813-1.84-1.44-.453-.627-.687-1.367-.7-2.22h3c.04.573.24 1.027.6 1.36.373.333.88.5 1.52.5.653 0 1.167-.153 1.54-.46.373-.32.56-.733.56-1.24 0-.413-.127-.753-.38-1.02a2.54 2.54 0 0 0-.96-.62c-.373-.16-.893-.333-1.56-.52-.907-.267-1.647-.527-2.22-.78a4.115 4.115 0 0 1-1.46-1.18c-.4-.533-.6-1.24-.6-2.12 0-.827.207-1.547.62-2.16.413-.613.993-1.08 1.74-1.4.747-.333 1.6-.5 2.56-.5 1.44 0 2.607.353 3.5 1.06.907.693 1.407 1.667 1.5 2.92h-3.08a1.559 1.559 0 0 0-.62-1.18c-.373-.32-.873-.48-1.5-.48-.547 0-.987.14-1.32.42-.32.28-.48.687-.48 1.22 0 .373.12.687.36.94.253.24.56.44.92.6.373.147.893.32 1.56.52.907.267 1.647.533 2.22.8a3.993 3.993 0 0 1 1.48 1.2c.413.533.62 1.233.62 2.1 0 .747-.193 1.44-.58 2.08-.387.64-.953 1.153-1.7 1.54-.747.373-1.633.56-2.66.56zm17.67-5.92a7 7 0 0 1-.08 1.08h-8.102c.066.8.346 1.427.84 1.88.493.453 1.1.68 1.82.68 1.04 0 1.78-.447 2.22-1.34h3.022c-.32 1.067-.94 1.947-1.84 2.64-.909.68-2.022 1.02-3.342 1.02-1.067 0-2.027-.233-2.88-.7a5.15 5.15 0 0 1-1.98-2.02c-.467-.867-.701-1.867-.701-3 0-1.147.234-2.153.701-3.02a4.88 4.88 0 0 1 1.96-2c.84-.467 1.806-.7 2.9-.7 1.053 0 1.993.227 2.822.68.84.453 1.48 1.1 1.94 1.94.46.827.7 1.78.7 2.86zm-2.902-.8c-.014-.72-.274-1.293-.78-1.72-.507-.44-1.127-.66-1.86-.66-.694 0-1.28.213-1.76.64-.467.413-.754.993-.86 1.74h5.26zm11.082-4.66c1.32 0 2.39.42 3.2 1.26.81.827 1.22 1.987 1.22 3.48v6.5h-2.8v-6.12c0-.88-.22-1.553-.66-2.02-.44-.48-1.04-.72-1.8-.72-.77 0-1.39.24-1.84.72-.44.467-.66 1.14-.66 2.02V432h-2.8v-11.08h2.8v1.38a3.8 3.8 0 0 1 1.42-1.12 4.42 4.42 0 0 1 1.92-.42zm6.36 5.66c0-1.12.22-2.113.66-2.98.46-.867 1.07-1.533 1.84-2 .78-.467 1.64-.7 2.58-.7.72 0 1.41.16 2.06.48.66.307 1.18.72 1.56 1.24v-5.26h2.84V432h-2.84v-1.64c-.34.547-.83.987-1.46 1.32-.62.333-1.35.5-2.18.5-.93 0-1.78-.24-2.56-.72-.77-.48-1.38-1.153-1.84-2.02-.44-.88-.66-1.887-.66-3.02zm8.72.04c0-.68-.13-1.26-.4-1.74a2.656 2.656 0 0 0-1.08-1.12 2.82 2.82 0 0 0-1.46-.4c-.52 0-1 .127-1.44.38-.44.253-.8.627-1.08 1.12-.26.48-.4 1.053-.4 1.72s.14 1.253.4 1.76c.28.493.64.873 1.08 1.14.46.267.94.4 1.44.4.52 0 1.01-.127 1.46-.38.46-.267.82-.64 1.08-1.12.27-.493.4-1.08.4-1.76z"/><rect width="1000" height="120" x="41" y="252" fill="#fff" rx="8"/><rect width="999" height="119" x="41.5" y="252.5" stroke="#DADADA" stroke-opacity=".855" rx="7.5"/><path fill="#666" fill-opacity=".49" d="M66.16 273.53v1.695h-2.79V284h-2.1v-8.775h-2.79v-1.695h7.68zm.992 6.285c0-.84.165-1.585.495-2.235.34-.65.795-1.15 1.365-1.5a3.673 3.673 0 0 1 1.935-.525c.62 0 1.16.125 1.62.375.47.25.845.565 1.125.945v-1.185h2.115V284h-2.115v-1.215c-.27.39-.645.715-1.125.975-.47.25-1.015.375-1.635.375-.7 0-1.34-.18-1.92-.54-.57-.36-1.025-.865-1.365-1.515-.33-.66-.495-1.415-.495-2.265zm6.54.03c0-.51-.1-.945-.3-1.305-.2-.37-.47-.65-.81-.84-.34-.2-.705-.3-1.095-.3s-.75.095-1.08.285c-.33.19-.6.47-.81.84-.2.36-.3.79-.3 1.29s.1.94.3 1.32c.21.37.48.655.81.855.34.2.7.3 1.08.3.39 0 .755-.095 1.095-.285.34-.2.61-.48.81-.84.2-.37.3-.81.3-1.32zm6.266-6.945V284h-2.1v-11.1h2.1zm6.995 11.1-2.82-3.54V284h-2.1v-11.1h2.1v6.315l2.79-3.525h2.73l-3.66 4.17 3.69 4.14h-2.73zm12.019-8.43c.99 0 1.79.315 2.4.945.61.62.915 1.49.915 2.61V284h-2.1v-4.59c0-.66-.165-1.165-.495-1.515-.33-.36-.78-.54-1.35-.54-.58 0-1.04.18-1.38.54-.33.35-.495.855-.495 1.515V284h-2.1v-8.31h2.1v1.035c.28-.36.635-.64 1.065-.84a3.3 3.3 0 0 1 1.44-.315zm9.002 8.565c-.8 0-1.52-.175-2.16-.525a3.938 3.938 0 0 1-1.515-1.515c-.36-.65-.54-1.4-.54-2.25 0-.85.185-1.6.555-2.25.38-.65.895-1.15 1.545-1.5.65-.36 1.375-.54 2.175-.54.8 0 1.525.18 2.175.54.65.35 1.16.85 1.53 1.5.38.65.57 1.4.57 2.25 0 .85-.195 1.6-.585 2.25-.38.65-.9 1.155-1.56 1.515-.65.35-1.38.525-2.19.525zm0-1.83c.38 0 .735-.09 1.065-.27.34-.19.61-.47.81-.84.2-.37.3-.82.3-1.35 0-.79-.21-1.395-.63-1.815a2.01 2.01 0 0 0-1.515-.645c-.6 0-1.105.215-1.515.645-.4.42-.6 1.025-.6 1.815s.195 1.4.585 1.83c.4.42.9.63 1.5.63zm7.975-5.325c.27-.44.62-.785 1.05-1.035.44-.25.94-.375 1.5-.375v2.205h-.555c-.66 0-1.16.155-1.5.465-.33.31-.495.85-.495 1.62V284h-2.1v-8.31h2.1v1.29zm14.285-1.41c1.02 0 1.84.315 2.46.945.63.62.945 1.49.945 2.61V284h-2.1v-4.59c0-.65-.165-1.145-.495-1.485-.33-.35-.78-.525-1.35-.525-.57 0-1.025.175-1.365.525-.33.34-.495.835-.495 1.485V284h-2.1v-4.59c0-.65-.165-1.145-.495-1.485-.33-.35-.78-.525-1.35-.525-.58 0-1.04.175-1.38.525-.33.34-.495.835-.495 1.485V284h-2.1v-8.31h2.1v1.005a2.81 2.81 0 0 1 1.035-.825c.43-.2.9-.3 1.41-.3.65 0 1.23.14 1.74.42.51.27.905.66 1.185 1.17.27-.48.66-.865 1.17-1.155.52-.29 1.08-.435 1.68-.435zm4.858 4.245c0-.84.165-1.585.495-2.235.34-.65.795-1.15 1.365-1.5a3.673 3.673 0 0 1 1.935-.525c.62 0 1.16.125 1.62.375.47.25.845.565 1.125.945v-1.185h2.115V284h-2.115v-1.215c-.27.39-.645.715-1.125.975-.47.25-1.015.375-1.635.375-.7 0-1.34-.18-1.92-.54-.57-.36-1.025-.865-1.365-1.515-.33-.66-.495-1.415-.495-2.265zm6.54.03c0-.51-.1-.945-.3-1.305-.2-.37-.47-.65-.81-.84-.34-.2-.705-.3-1.095-.3s-.75.095-1.08.285c-.33.19-.6.47-.81.84-.2.36-.3.79-.3 1.29s.1.94.3 1.32c.21.37.48.655.81.855.34.2.7.3 1.08.3.39 0 .755-.095 1.095-.285.34-.2.61-.48.81-.84.2-.37.3-.81.3-1.32zm6.266-6.945V284h-2.1v-11.1h2.1zm4.175 0V284h-2.1v-11.1h2.1zm10.024 2.79-5.145 12.24h-2.235l1.8-4.14-3.33-8.1h2.355l2.145 5.805 2.175-5.805h2.235zm3.427 6.105-1.755 4.215h-1.35l.975-4.215h2.13zm7.533-4.38v4.02c0 .28.065.485.195.615.14.12.37.18.69.18h.975V284h-1.32c-1.77 0-2.655-.86-2.655-2.58v-4.005h-.99v-1.725h.99v-2.055h2.115v2.055h1.86v1.725h-1.86zm11.096 2.25c0 .3-.02.57-.06.81h-6.075c.05.6.26 1.07.63 1.41.37.34.825.51 1.365.51.78 0 1.335-.335 1.665-1.005h2.265c-.24.8-.7 1.46-1.38 1.98-.68.51-1.515.765-2.505.765-.8 0-1.52-.175-2.16-.525a3.864 3.864 0 0 1-1.485-1.515c-.35-.65-.525-1.4-.525-2.25 0-.86.175-1.615.525-2.265.35-.65.84-1.15 1.47-1.5.63-.35 1.355-.525 2.175-.525.79 0 1.495.17 2.115.51.63.34 1.115.825 1.455 1.455.35.62.525 1.335.525 2.145zm-2.175-.6c-.01-.54-.205-.97-.585-1.29-.38-.33-.845-.495-1.395-.495-.52 0-.96.16-1.32.48-.35.31-.565.745-.645 1.305h3.945zm5.807-6.165V284h-2.1v-11.1h2.1zm4.175 0V284h-2.1v-11.1h2.1zm15.969 2.67c1.02 0 1.84.315 2.46.945.63.62.945 1.49.945 2.61V284h-2.1v-4.59c0-.65-.165-1.145-.495-1.485-.33-.35-.78-.525-1.35-.525-.57 0-1.025.175-1.365.525-.33.34-.495.835-.495 1.485V284h-2.1v-4.59c0-.65-.165-1.145-.495-1.485-.33-.35-.78-.525-1.35-.525-.58 0-1.04.175-1.38.525-.33.34-.495.835-.495 1.485V284h-2.1v-8.31h2.1v1.005a2.81 2.81 0 0 1 1.035-.825c.43-.2.9-.3 1.41-.3.65 0 1.23.14 1.74.42.51.27.905.66 1.185 1.17.27-.48.66-.865 1.17-1.155.52-.29 1.08-.435 1.68-.435zm13.123 4.095c0 .3-.02.57-.06.81h-6.075c.05.6.26 1.07.63 1.41.37.34.825.51 1.365.51.78 0 1.335-.335 1.665-1.005h2.265c-.24.8-.7 1.46-1.38 1.98-.68.51-1.515.765-2.505.765-.8 0-1.52-.175-2.16-.525a3.864 3.864 0 0 1-1.485-1.515c-.35-.65-.525-1.4-.525-2.25 0-.86.175-1.615.525-2.265.35-.65.84-1.15 1.47-1.5.63-.35 1.355-.525 2.175-.525.79 0 1.495.17 2.115.51.63.34 1.115.825 1.455 1.455.35.62.525 1.335.525 2.145zm-2.175-.6c-.01-.54-.205-.97-.585-1.29-.38-.33-.845-.495-1.395-.495-.52 0-.96.16-1.32.48-.35.31-.565.745-.645 1.305h3.945zm11.962-3.495c.63 0 1.19.14 1.68.42.49.27.87.675 1.14 1.215.28.53.42 1.17.42 1.92V284h-2.1v-4.59c0-.66-.165-1.165-.495-1.515-.33-.36-.78-.54-1.35-.54-.58 0-1.04.18-1.38.54-.33.35-.495.855-.495 1.515V284h-2.1v-11.1h2.1v3.825c.27-.36.63-.64 1.08-.84.45-.21.95-.315 1.5-.315zm8.927 8.565c-.8 0-1.52-.175-2.16-.525a3.938 3.938 0 0 1-1.515-1.515c-.36-.65-.54-1.4-.54-2.25 0-.85.185-1.6.555-2.25.38-.65.895-1.15 1.545-1.5.65-.36 1.375-.54 2.175-.54.8 0 1.525.18 2.175.54.65.35 1.16.85 1.53 1.5.38.65.57 1.4.57 2.25 0 .85-.195 1.6-.585 2.25-.38.65-.9 1.155-1.56 1.515-.65.35-1.38.525-2.19.525zm0-1.83c.38 0 .735-.09 1.065-.27.34-.19.61-.47.81-.84.2-.37.3-.82.3-1.35 0-.79-.21-1.395-.63-1.815a2.01 2.01 0 0 0-1.515-.645c-.6 0-1.105.215-1.515.645-.4.42-.6 1.025-.6 1.815s.195 1.4.585 1.83c.4.42.9.63 1.5.63zm17.395-6.615-2.43 8.31h-2.265l-1.515-5.805-1.515 5.805h-2.28l-2.445-8.31h2.13l1.47 6.33 1.59-6.33h2.22l1.56 6.315 1.47-6.315h2.01zm12.661 0-5.145 12.24h-2.235l1.8-4.14-3.33-8.1h2.355l2.145 5.805 2.175-5.805h2.235zm4.822 8.445c-.8 0-1.52-.175-2.16-.525a3.938 3.938 0 0 1-1.515-1.515c-.36-.65-.54-1.4-.54-2.25 0-.85.185-1.6.555-2.25.38-.65.895-1.15 1.545-1.5.65-.36 1.375-.54 2.175-.54.8 0 1.525.18 2.175.54.65.35 1.16.85 1.53 1.5.38.65.57 1.4.57 2.25 0 .85-.195 1.6-.585 2.25-.38.65-.9 1.155-1.56 1.515-.65.35-1.38.525-2.19.525zm0-1.83c.38 0 .735-.09 1.065-.27.34-.19.61-.47.81-.84.2-.37.3-.82.3-1.35 0-.79-.21-1.395-.63-1.815a2.01 2.01 0 0 0-1.515-.645c-.6 0-1.105.215-1.515.645-.4.42-.6 1.025-.6 1.815s.195 1.4.585 1.83c.4.42.9.63 1.5.63zm13.72-6.615V284h-2.115v-1.05c-.27.36-.625.645-1.065.855-.43.2-.9.3-1.41.3-.65 0-1.225-.135-1.725-.405-.5-.28-.895-.685-1.185-1.215-.28-.54-.42-1.18-.42-1.92v-4.875h2.1v4.575c0 .66.165 1.17.495 1.53.33.35.78.525 1.35.525.58 0 1.035-.175 1.365-.525.33-.36.495-.87.495-1.53v-4.575h2.115zm17.167 0-2.43 8.31h-2.265l-1.515-5.805-1.515 5.805h-2.28l-2.445-8.31h2.13l1.47 6.33 1.59-6.33h2.22l1.56 6.315 1.47-6.315h2.01zm.596 4.125c0-.84.165-1.585.495-2.235.34-.65.795-1.15 1.365-1.5a3.673 3.673 0 0 1 1.935-.525c.62 0 1.16.125 1.62.375.47.25.845.565 1.125.945v-1.185h2.115V284h-2.115v-1.215c-.27.39-.645.715-1.125.975-.47.25-1.015.375-1.635.375-.7 0-1.34-.18-1.92-.54-.57-.36-1.025-.865-1.365-1.515-.33-.66-.495-1.415-.495-2.265zm6.54.03c0-.51-.1-.945-.3-1.305-.2-.37-.47-.65-.81-.84-.34-.2-.705-.3-1.095-.3s-.75.095-1.08.285c-.33.19-.6.47-.81.84-.2.36-.3.79-.3 1.29s.1.94.3 1.32c.21.37.48.655.81.855.34.2.7.3 1.08.3.39 0 .755-.095 1.095-.285.34-.2.61-.48.81-.84.2-.37.3-.81.3-1.32zm8.771-4.275c.99 0 1.79.315 2.4.945.61.62.915 1.49.915 2.61V284h-2.1v-4.59c0-.66-.165-1.165-.495-1.515-.33-.36-.78-.54-1.35-.54-.58 0-1.04.18-1.38.54-.33.35-.495.855-.495 1.515V284h-2.1v-8.31h2.1v1.035c.28-.36.635-.64 1.065-.84a3.3 3.3 0 0 1 1.44-.315zm7.757 1.845v4.02c0 .28.065.485.195.615.14.12.37.18.69.18h.975V284h-1.32c-1.77 0-2.655-.86-2.655-2.58v-4.005h-.99v-1.725h.99v-2.055h2.115v2.055h1.86v1.725h-1.86zm17.264-1.845c1.02 0 1.84.315 2.46.945.63.62.945 1.49.945 2.61V284h-2.1v-4.59c0-.65-.165-1.145-.495-1.485-.33-.35-.78-.525-1.35-.525-.57 0-1.025.175-1.365.525-.33.34-.495.835-.495 1.485V284h-2.1v-4.59c0-.65-.165-1.145-.495-1.485-.33-.35-.78-.525-1.35-.525-.58 0-1.04.175-1.38.525-.33.34-.495.835-.495 1.485V284h-2.1v-8.31h2.1v1.005a2.81 2.81 0 0 1 1.035-.825c.43-.2.9-.3 1.41-.3.65 0 1.23.14 1.74.42.51.27.905.66 1.185 1.17.27-.48.66-.865 1.17-1.155.52-.29 1.08-.435 1.68-.435zm13.123 4.095c0 .3-.02.57-.06.81h-6.075c.05.6.26 1.07.63 1.41.37.34.825.51 1.365.51.78 0 1.335-.335 1.665-1.005h2.265c-.24.8-.7 1.46-1.38 1.98-.68.51-1.515.765-2.505.765-.8 0-1.52-.175-2.16-.525a3.864 3.864 0 0 1-1.485-1.515c-.35-.65-.525-1.4-.525-2.25 0-.86.175-1.615.525-2.265.35-.65.84-1.15 1.47-1.5.63-.35 1.355-.525 2.175-.525.79 0 1.495.17 2.115.51.63.34 1.115.825 1.455 1.455.35.62.525 1.335.525 2.145zm-2.175-.6c-.01-.54-.205-.97-.585-1.29-.38-.33-.845-.495-1.395-.495-.52 0-.96.16-1.32.48-.35.31-.565.745-.645 1.305h3.945zm9.727-1.65v4.02c0 .28.065.485.195.615.14.12.37.18.69.18h.975V284h-1.32c-1.77 0-2.655-.86-2.655-2.58v-4.005h-.99v-1.725h.99v-2.055h2.115v2.055h1.86v1.725h-1.86zm7.061 6.72c-.8 0-1.52-.175-2.16-.525a3.938 3.938 0 0 1-1.515-1.515c-.36-.65-.54-1.4-.54-2.25 0-.85.185-1.6.555-2.25.38-.65.895-1.15 1.545-1.5.65-.36 1.375-.54 2.175-.54.8 0 1.525.18 2.175.54.65.35 1.16.85 1.53 1.5.38.65.57 1.4.57 2.25 0 .85-.195 1.6-.585 2.25-.38.65-.9 1.155-1.56 1.515-.65.35-1.38.525-2.19.525zm0-1.83c.38 0 .735-.09 1.065-.27.34-.19.61-.47.81-.84.2-.37.3-.82.3-1.35 0-.79-.21-1.395-.63-1.815a2.01 2.01 0 0 0-1.515-.645c-.6 0-1.105.215-1.515.645-.4.42-.6 1.025-.6 1.815s.195 1.4.585 1.83c.4.42.9.63 1.5.63zm12.629 1.83c-.68 0-1.29-.12-1.83-.36-.54-.25-.97-.585-1.29-1.005-.31-.42-.48-.885-.51-1.395h2.115c.04.32.195.585.465.795.28.21.625.315 1.035.315.4 0 .71-.08.93-.24.23-.16.345-.365.345-.615 0-.27-.14-.47-.42-.6-.27-.14-.705-.29-1.305-.45-.62-.15-1.13-.305-1.53-.465a2.72 2.72 0 0 1-1.02-.735c-.28-.33-.42-.775-.42-1.335 0-.46.13-.88.39-1.26.27-.38.65-.68 1.14-.9.5-.22 1.085-.33 1.755-.33.99 0 1.78.25 2.37.75.59.49.915 1.155.975 1.995h-2.01c-.03-.33-.17-.59-.42-.78-.24-.2-.565-.3-.975-.3-.38 0-.675.07-.885.21-.2.14-.3.335-.3.585 0 .28.14.495.42.645.28.14.715.285 1.305.435.6.15 1.095.305 1.485.465.39.16.725.41 1.005.75.29.33.44.77.45 1.32 0 .48-.135.91-.405 1.29-.26.38-.64.68-1.14.9-.49.21-1.065.315-1.725.315zm12.719-4.47c0 .3-.02.57-.06.81h-6.075c.05.6.26 1.07.63 1.41.37.34.825.51 1.365.51.78 0 1.335-.335 1.665-1.005h2.265c-.24.8-.7 1.46-1.38 1.98-.68.51-1.515.765-2.505.765-.8 0-1.52-.175-2.16-.525a3.864 3.864 0 0 1-1.485-1.515c-.35-.65-.525-1.4-.525-2.25 0-.86.175-1.615.525-2.265.35-.65.84-1.15 1.47-1.5.63-.35 1.355-.525 2.175-.525.79 0 1.495.17 2.115.51.63.34 1.115.825 1.455 1.455.35.62.525 1.335.525 2.145zm-2.175-.6c-.01-.54-.205-.97-.585-1.29-.38-.33-.845-.495-1.395-.495-.52 0-.96.16-1.32.48-.35.31-.565.745-.645 1.305h3.945zm6.153-1.65v4.02c0 .28.065.485.195.615.14.12.37.18.69.18h.975V284h-1.32c-1.77 0-2.655-.86-2.655-2.58v-4.005h-.99v-1.725h.99v-2.055h2.115v2.055h1.86v1.725h-1.86zm11.215-1.725V284h-2.115v-1.05c-.27.36-.625.645-1.065.855-.43.2-.9.3-1.41.3-.65 0-1.225-.135-1.725-.405-.5-.28-.895-.685-1.185-1.215-.28-.54-.42-1.18-.42-1.92v-4.875h2.1v4.575c0 .66.165 1.17.495 1.53.33.35.78.525 1.35.525.58 0 1.035-.175 1.365-.525.33-.36.495-.87.495-1.53v-4.575h2.115zm4.172 1.2c.27-.38.64-.695 1.11-.945.48-.26 1.025-.39 1.635-.39a3.596 3.596 0 0 1 3.285 2.025c.34.64.51 1.385.51 2.235 0 .85-.17 1.605-.51 2.265a3.72 3.72 0 0 1-1.365 1.515c-.57.36-1.21.54-1.92.54-.61 0-1.15-.125-1.62-.375a3.482 3.482 0 0 1-1.125-.945v5.145h-2.1v-12.27h2.1v1.2zm4.395 2.925c0-.5-.105-.93-.315-1.29-.2-.37-.47-.65-.81-.84-.33-.19-.69-.285-1.08-.285-.38 0-.74.1-1.08.3-.33.19-.6.47-.81.84-.2.37-.3.805-.3 1.305 0 .5.1.935.3 1.305.21.37.48.655.81.855.34.19.7.285 1.08.285.39 0 .75-.1 1.08-.3.34-.2.61-.485.81-.855.21-.37.315-.81.315-1.32zm15.196-4.125-5.145 12.24h-2.235l1.8-4.14-3.33-8.1h2.355l2.145 5.805 2.175-5.805h2.235zm4.822 8.445c-.8 0-1.52-.175-2.16-.525a3.938 3.938 0 0 1-1.515-1.515c-.36-.65-.54-1.4-.54-2.25 0-.85.185-1.6.555-2.25.38-.65.895-1.15 1.545-1.5.65-.36 1.375-.54 2.175-.54.8 0 1.525.18 2.175.54.65.35 1.16.85 1.53 1.5.38.65.57 1.4.57 2.25 0 .85-.195 1.6-.585 2.25-.38.65-.9 1.155-1.56 1.515-.65.35-1.38.525-2.19.525zm0-1.83c.38 0 .735-.09 1.065-.27.34-.19.61-.47.81-.84.2-.37.3-.82.3-1.35 0-.79-.21-1.395-.63-1.815a2.01 2.01 0 0 0-1.515-.645c-.6 0-1.105.215-1.515.645-.4.42-.6 1.025-.6 1.815s.195 1.4.585 1.83c.4.42.9.63 1.5.63zm13.72-6.615V284h-2.115v-1.05c-.27.36-.625.645-1.065.855-.43.2-.9.3-1.41.3-.65 0-1.225-.135-1.725-.405-.5-.28-.895-.685-1.185-1.215-.28-.54-.42-1.18-.42-1.92v-4.875h2.1v4.575c0 .66.165 1.17.495 1.53.33.35.78.525 1.35.525.58 0 1.035-.175 1.365-.525.33-.36.495-.87.495-1.53v-4.575h2.115zm4.172 1.29c.27-.44.62-.785 1.05-1.035.44-.25.94-.375 1.5-.375v2.205h-.555c-.66 0-1.16.155-1.5.465-.33.31-.495.85-.495 1.62V284h-2.1v-8.31h2.1v1.29zm11.349.435h-1.455V284h-2.13v-6.585h-.945v-1.725h.945v-.42c0-1.02.29-1.77.87-2.25.58-.48 1.455-.705 2.625-.675v1.77c-.51-.01-.865.075-1.065.255-.2.18-.3.505-.3.975v.345h1.455v1.725zm5.051 6.72c-.8 0-1.52-.175-2.16-.525a3.938 3.938 0 0 1-1.515-1.515c-.36-.65-.54-1.4-.54-2.25 0-.85.185-1.6.555-2.25.38-.65.895-1.15 1.545-1.5.65-.36 1.375-.54 2.175-.54.8 0 1.525.18 2.175.54.65.35 1.16.85 1.53 1.5.38.65.57 1.4.57 2.25 0 .85-.195 1.6-.585 2.25-.38.65-.9 1.155-1.56 1.515-.65.35-1.38.525-2.19.525zm0-1.83c.38 0 .735-.09 1.065-.27.34-.19.61-.47.81-.84.2-.37.3-.82.3-1.35 0-.79-.21-1.395-.63-1.815a2.01 2.01 0 0 0-1.515-.645c-.6 0-1.105.215-1.515.645-.4.42-.6 1.025-.6 1.815s.195 1.4.585 1.83c.4.42.9.63 1.5.63zm7.975-9.405V284h-2.1v-11.1h2.1zm1.535 6.915c0-.84.165-1.585.495-2.235.34-.65.8-1.15 1.38-1.5a3.673 3.673 0 0 1 1.935-.525c.54 0 1.055.12 1.545.36.49.23.88.54 1.17.93V272.9h2.13V284h-2.13v-1.23c-.26.41-.625.74-1.095.99s-1.015.375-1.635.375c-.7 0-1.34-.18-1.92-.54a3.824 3.824 0 0 1-1.38-1.515c-.33-.66-.495-1.415-.495-2.265zm6.54.03c0-.51-.1-.945-.3-1.305-.2-.37-.47-.65-.81-.84-.34-.2-.705-.3-1.095-.3s-.75.095-1.08.285c-.33.19-.6.47-.81.84-.2.36-.3.79-.3 1.29s.1.94.3 1.32c.21.37.48.655.81.855.34.2.7.3 1.08.3.39 0 .755-.095 1.095-.285.34-.2.61-.48.81-.84.2-.37.3-.81.3-1.32zm11.891-.18c0 .3-.02.57-.06.81h-6.075c.05.6.26 1.07.63 1.41.37.34.825.51 1.365.51.78 0 1.335-.335 1.665-1.005h2.265c-.24.8-.7 1.46-1.38 1.98-.68.51-1.515.765-2.505.765-.8 0-1.52-.175-2.16-.525a3.864 3.864 0 0 1-1.485-1.515c-.35-.65-.525-1.4-.525-2.25 0-.86.175-1.615.525-2.265.35-.65.84-1.15 1.47-1.5.63-.35 1.355-.525 2.175-.525.79 0 1.495.17 2.115.51.63.34 1.115.825 1.455 1.455.35.62.525 1.335.525 2.145zm-2.175-.6c-.01-.54-.205-.97-.585-1.29-.38-.33-.845-.495-1.395-.495-.52 0-.96.16-1.32.48-.35.31-.565.745-.645 1.305h3.945zm5.808-2.085c.27-.44.62-.785 1.05-1.035.44-.25.94-.375 1.5-.375v2.205h-.555c-.66 0-1.16.155-1.5.465-.33.31-.495.85-.495 1.62V284h-2.1v-8.31h2.1v1.29zm7.144 7.155c-.68 0-1.29-.12-1.83-.36-.54-.25-.97-.585-1.29-1.005-.31-.42-.48-.885-.51-1.395h2.115c.04.32.195.585.465.795.28.21.625.315 1.035.315.4 0 .71-.08.93-.24.23-.16.345-.365.345-.615 0-.27-.14-.47-.42-.6-.27-.14-.705-.29-1.305-.45-.62-.15-1.13-.305-1.53-.465a2.72 2.72 0 0 1-1.02-.735c-.28-.33-.42-.775-.42-1.335 0-.46.13-.88.39-1.26.27-.38.65-.68 1.14-.9.5-.22 1.085-.33 1.755-.33.99 0 1.78.25 2.37.75.59.49.915 1.155.975 1.995h-2.01c-.03-.33-.17-.59-.42-.78-.24-.2-.565-.3-.975-.3-.38 0-.675.07-.885.21-.2.14-.3.335-.3.585 0 .28.14.495.42.645.28.14.715.285 1.305.435.6.15 1.095.305 1.485.465.39.16.725.41 1.005.75.29.33.44.77.45 1.32 0 .48-.135.91-.405 1.29-.26.38-.64.68-1.14.9-.49.21-1.065.315-1.725.315zm12.198 2.82c-.97-.94-1.725-2.14-2.265-3.6-.53-1.46-.795-3.025-.795-4.695 0-1.71.28-3.315.84-4.815.56-1.51 1.375-2.745 2.445-3.705h2.115v.195a10.46 10.46 0 0 0-2.52 3.78 12.468 12.468 0 0 0-.045 8.955c.55 1.41 1.33 2.635 2.34 3.675v.21h-2.115zm8.256-11.385c.99 0 1.79.315 2.4.945.61.62.915 1.49.915 2.61V284H538v-4.59c0-.66-.165-1.165-.495-1.515-.33-.36-.78-.54-1.35-.54-.58 0-1.04.18-1.38.54-.33.35-.495.855-.495 1.515V284h-2.1v-8.31h2.1v1.035c.28-.36.635-.64 1.065-.84a3.3 3.3 0 0 1 1.44-.315zm9.002 8.565c-.8 0-1.52-.175-2.16-.525a3.938 3.938 0 0 1-1.515-1.515c-.36-.65-.54-1.4-.54-2.25 0-.85.185-1.6.555-2.25.38-.65.895-1.15 1.545-1.5.65-.36 1.375-.54 2.175-.54.8 0 1.525.18 2.175.54.65.35 1.16.85 1.53 1.5.38.65.57 1.4.57 2.25 0 .85-.195 1.6-.585 2.25-.38.65-.9 1.155-1.56 1.515-.65.35-1.38.525-2.19.525zm0-1.83c.38 0 .735-.09 1.065-.27.34-.19.61-.47.81-.84.2-.37.3-.82.3-1.35 0-.79-.21-1.395-.63-1.815a2.01 2.01 0 0 0-1.515-.645c-.6 0-1.105.215-1.515.645-.4.42-.6 1.025-.6 1.815s.195 1.4.585 1.83c.4.42.9.63 1.5.63zm11.549-5.415c.27-.38.64-.695 1.11-.945.48-.26 1.025-.39 1.635-.39a3.596 3.596 0 0 1 3.285 2.025c.34.64.51 1.385.51 2.235 0 .85-.17 1.605-.51 2.265a3.72 3.72 0 0 1-1.365 1.515c-.57.36-1.21.54-1.92.54-.61 0-1.15-.125-1.62-.375a3.482 3.482 0 0 1-1.125-.945v5.145h-2.1v-12.27h2.1v1.2zm4.395 2.925c0-.5-.105-.93-.315-1.29-.2-.37-.47-.65-.81-.84-.33-.19-.69-.285-1.08-.285-.38 0-.74.1-1.08.3-.33.19-.6.47-.81.84-.2.37-.3.805-.3 1.305 0 .5.1.935.3 1.305.21.37.48.655.81.855.34.19.7.285 1.08.285.39 0 .75-.1 1.08-.3.34-.2.61-.485.81-.855.21-.37.315-.81.315-1.32zm5.771-2.835c.27-.44.62-.785 1.05-1.035.44-.25.94-.375 1.5-.375v2.205h-.555c-.66 0-1.16.155-1.5.465-.33.31-.495.85-.495 1.62V284h-2.1v-8.31h2.1v1.29zm11.69 2.685c0 .3-.02.57-.06.81h-6.075c.05.6.26 1.07.63 1.41.37.34.825.51 1.365.51.78 0 1.335-.335 1.665-1.005h2.265c-.24.8-.7 1.46-1.38 1.98-.68.51-1.515.765-2.505.765-.8 0-1.52-.175-2.16-.525a3.864 3.864 0 0 1-1.485-1.515c-.35-.65-.525-1.4-.525-2.25 0-.86.175-1.615.525-2.265.35-.65.84-1.15 1.47-1.5.63-.35 1.355-.525 2.175-.525.79 0 1.495.17 2.115.51.63.34 1.115.825 1.455 1.455.35.62.525 1.335.525 2.145zm-2.175-.6c-.01-.54-.205-.97-.585-1.29-.38-.33-.845-.495-1.395-.495-.52 0-.96.16-1.32.48-.35.31-.565.745-.645 1.305h3.945zm6.887 5.07c-.68 0-1.29-.12-1.83-.36-.54-.25-.97-.585-1.29-1.005-.31-.42-.48-.885-.51-1.395h2.115c.04.32.195.585.465.795.28.21.625.315 1.035.315.4 0 .71-.08.93-.24.23-.16.345-.365.345-.615 0-.27-.14-.47-.42-.6-.27-.14-.705-.29-1.305-.45-.62-.15-1.13-.305-1.53-.465a2.72 2.72 0 0 1-1.02-.735c-.28-.33-.42-.775-.42-1.335 0-.46.13-.88.39-1.26.27-.38.65-.68 1.14-.9.5-.22 1.085-.33 1.755-.33.99 0 1.78.25 2.37.75.59.49.915 1.155.975 1.995h-2.01c-.03-.33-.17-.59-.42-.78-.24-.2-.565-.3-.975-.3-.38 0-.675.07-.885.21-.2.14-.3.335-.3.585 0 .28.14.495.42.645.28.14.715.285 1.305.435.6.15 1.095.305 1.485.465.39.16.725.41 1.005.75.29.33.44.77.45 1.32 0 .48-.135.91-.405 1.29-.26.38-.64.68-1.14.9-.49.21-1.065.315-1.725.315zm8.174 0c-.68 0-1.29-.12-1.83-.36-.54-.25-.97-.585-1.29-1.005-.31-.42-.48-.885-.51-1.395h2.115c.04.32.195.585.465.795.28.21.625.315 1.035.315.4 0 .71-.08.93-.24.23-.16.345-.365.345-.615 0-.27-.14-.47-.42-.6-.27-.14-.705-.29-1.305-.45-.62-.15-1.13-.305-1.53-.465a2.72 2.72 0 0 1-1.02-.735c-.28-.33-.42-.775-.42-1.335 0-.46.13-.88.39-1.26.27-.38.65-.68 1.14-.9.5-.22 1.085-.33 1.755-.33.99 0 1.78.25 2.37.75.59.49.915 1.155.975 1.995h-2.01c-.03-.33-.17-.59-.42-.78-.24-.2-.565-.3-.975-.3-.38 0-.675.07-.885.21-.2.14-.3.335-.3.585 0 .28.14.495.42.645.28.14.715.285 1.305.435.6.15 1.095.305 1.485.465.39.16.725.41 1.005.75.29.33.44.77.45 1.32 0 .48-.135.91-.405 1.29-.26.38-.64.68-1.14.9-.49.21-1.065.315-1.725.315zm12.839-8.445V284h-2.115v-1.05c-.27.36-.625.645-1.065.855-.43.2-.9.3-1.41.3-.65 0-1.225-.135-1.725-.405-.5-.28-.895-.685-1.185-1.215-.28-.54-.42-1.18-.42-1.92v-4.875h2.1v4.575c0 .66.165 1.17.495 1.53.33.35.78.525 1.35.525.58 0 1.035-.175 1.365-.525.33-.36.495-.87.495-1.53v-4.575h2.115zm4.172 1.29c.27-.44.62-.785 1.05-1.035.44-.25.94-.375 1.5-.375v2.205h-.555c-.66 0-1.16.155-1.5.465-.33.31-.495.85-.495 1.62V284h-2.1v-8.31h2.1v1.29zm11.69 2.685c0 .3-.02.57-.06.81h-6.075c.05.6.26 1.07.63 1.41.37.34.825.51 1.365.51.78 0 1.335-.335 1.665-1.005h2.265c-.24.8-.7 1.46-1.38 1.98-.68.51-1.515.765-2.505.765-.8 0-1.52-.175-2.16-.525a3.864 3.864 0 0 1-1.485-1.515c-.35-.65-.525-1.4-.525-2.25 0-.86.175-1.615.525-2.265.35-.65.84-1.15 1.47-1.5.63-.35 1.355-.525 2.175-.525.79 0 1.495.17 2.115.51.63.34 1.115.825 1.455 1.455.35.62.525 1.335.525 2.145zm-2.175-.6c-.01-.54-.205-.97-.585-1.29-.38-.33-.845-.495-1.395-.495-.52 0-.96.16-1.32.48-.35.31-.565.745-.645 1.305h3.945zm15.232-3.375-5.145 12.24h-2.235l1.8-4.14-3.33-8.1h2.355l2.145 5.805 2.175-5.805h2.235zm4.822 8.445c-.8 0-1.52-.175-2.16-.525a3.938 3.938 0 0 1-1.515-1.515c-.36-.65-.54-1.4-.54-2.25 0-.85.185-1.6.555-2.25.38-.65.895-1.15 1.545-1.5.65-.36 1.375-.54 2.175-.54.8 0 1.525.18 2.175.54.65.35 1.16.85 1.53 1.5.38.65.57 1.4.57 2.25 0 .85-.195 1.6-.585 2.25-.38.65-.9 1.155-1.56 1.515-.65.35-1.38.525-2.19.525zm0-1.83c.38 0 .735-.09 1.065-.27.34-.19.61-.47.81-.84.2-.37.3-.82.3-1.35 0-.79-.21-1.395-.63-1.815a2.01 2.01 0 0 0-1.515-.645c-.6 0-1.105.215-1.515.645-.4.42-.6 1.025-.6 1.815s.195 1.4.585 1.83c.4.42.9.63 1.5.63zm13.72-6.615V284h-2.115v-1.05c-.27.36-.625.645-1.065.855-.43.2-.9.3-1.41.3-.65 0-1.225-.135-1.725-.405-.5-.28-.895-.685-1.185-1.215-.28-.54-.42-1.18-.42-1.92v-4.875h2.1v4.575c0 .66.165 1.17.495 1.53.33.35.78.525 1.35.525.58 0 1.035-.175 1.365-.525.33-.36.495-.87.495-1.53v-4.575h2.115zm17.166 0-2.43 8.31h-2.265l-1.515-5.805-1.515 5.805h-2.28l-2.445-8.31h2.13l1.47 6.33 1.59-6.33h2.22l1.56 6.315 1.47-6.315h2.01zm2.202-.99c-.37 0-.68-.115-.93-.345-.24-.24-.36-.535-.36-.885s.12-.64.36-.87c.25-.24.56-.36.93-.36s.675.12.915.36c.25.23.375.52.375.87s-.125.645-.375.885c-.24.23-.545.345-.915.345zm1.035.99V284h-2.1v-8.31h2.1zm4.174-2.79V284h-2.1v-11.1h2.1zm4.175 0V284h-2.1v-11.1h2.1zm7.749 4.005c.27-.4.64-.725 1.11-.975.48-.25 1.025-.375 1.635-.375a3.596 3.596 0 0 1 3.285 2.025c.34.64.51 1.385.51 2.235 0 .85-.17 1.605-.51 2.265a3.72 3.72 0 0 1-1.365 1.515c-.57.36-1.21.54-1.92.54-.62 0-1.165-.12-1.635-.36a3.25 3.25 0 0 1-1.11-.96V284h-2.1v-11.1h2.1v4.005zm4.395 2.91c0-.5-.105-.93-.315-1.29-.2-.37-.47-.65-.81-.84-.33-.19-.69-.285-1.08-.285-.38 0-.74.1-1.08.3-.33.19-.6.47-.81.84-.2.37-.3.805-.3 1.305 0 .5.1.935.3 1.305.21.37.48.655.81.855.34.19.7.285 1.08.285.39 0 .75-.1 1.08-.3.34-.2.61-.485.81-.855.21-.37.315-.81.315-1.32zm11.396-.15c0 .3-.02.57-.06.81h-6.075c.05.6.26 1.07.63 1.41.37.34.825.51 1.365.51.78 0 1.335-.335 1.665-1.005h2.265c-.24.8-.7 1.46-1.38 1.98-.68.51-1.515.765-2.505.765-.8 0-1.52-.175-2.16-.525a3.864 3.864 0 0 1-1.485-1.515c-.35-.65-.525-1.4-.525-2.25 0-.86.175-1.615.525-2.265.35-.65.84-1.15 1.47-1.5.63-.35 1.355-.525 2.175-.525.79 0 1.495.17 2.115.51.63.34 1.115.825 1.455 1.455.35.62.525 1.335.525 2.145zm-2.175-.6c-.01-.54-.205-.97-.585-1.29-.38-.33-.845-.495-1.395-.495-.52 0-.96.16-1.32.48-.35.31-.565.745-.645 1.305h3.945zm6.742.75c0-.84.165-1.585.495-2.235.34-.65.795-1.15 1.365-1.5a3.673 3.673 0 0 1 1.935-.525c.62 0 1.16.125 1.62.375.47.25.845.565 1.125.945v-1.185h2.115V284h-2.115v-1.215c-.27.39-.645.715-1.125.975-.47.25-1.015.375-1.635.375-.7 0-1.34-.18-1.92-.54-.57-.36-1.025-.865-1.365-1.515-.33-.66-.495-1.415-.495-2.265zm6.54.03c0-.51-.1-.945-.3-1.305-.2-.37-.47-.65-.81-.84-.34-.2-.705-.3-1.095-.3s-.75.095-1.08.285c-.33.19-.6.47-.81.84-.2.36-.3.79-.3 1.29s.1.94.3 1.32c.21.37.48.655.81.855.34.2.7.3 1.08.3.39 0 .755-.095 1.095-.285.34-.2.61-.48.81-.84.2-.37.3-.81.3-1.32zm6.266-2.94c.27-.4.64-.725 1.11-.975.48-.25 1.025-.375 1.635-.375a3.596 3.596 0 0 1 3.285 2.025c.34.64.51 1.385.51 2.235 0 .85-.17 1.605-.51 2.265a3.72 3.72 0 0 1-1.365 1.515c-.57.36-1.21.54-1.92.54-.62 0-1.165-.12-1.635-.36a3.25 3.25 0 0 1-1.11-.96V284h-2.1v-11.1h2.1v4.005zm4.395 2.91c0-.5-.105-.93-.315-1.29-.2-.37-.47-.65-.81-.84-.33-.19-.69-.285-1.08-.285-.38 0-.74.1-1.08.3-.33.19-.6.47-.81.84-.2.37-.3.805-.3 1.305 0 .5.1.935.3 1.305.21.37.48.655.81.855.34.19.7.285 1.08.285.39 0 .75-.1 1.08-.3.34-.2.61-.485.81-.855.21-.37.315-.81.315-1.32zm5.771-6.915V284h-2.1v-11.1h2.1zm9.8 6.765c0 .3-.02.57-.06.81h-6.075c.05.6.26 1.07.63 1.41.37.34.825.51 1.365.51.78 0 1.335-.335 1.665-1.005h2.265c-.24.8-.7 1.46-1.38 1.98-.68.51-1.515.765-2.505.765-.8 0-1.52-.175-2.16-.525a3.864 3.864 0 0 1-1.485-1.515c-.35-.65-.525-1.4-.525-2.25 0-.86.175-1.615.525-2.265.35-.65.84-1.15 1.47-1.5.63-.35 1.355-.525 2.175-.525.79 0 1.495.17 2.115.51.63.34 1.115.825 1.455 1.455.35.62.525 1.335.525 2.145zm-2.175-.6c-.01-.54-.205-.97-.585-1.29-.38-.33-.845-.495-1.395-.495-.52 0-.96.16-1.32.48-.35.31-.565.745-.645 1.305h3.945zm9.727-1.65v4.02c0 .28.065.485.195.615.14.12.37.18.69.18h.975V284h-1.32c-1.77 0-2.655-.86-2.655-2.58v-4.005h-.99v-1.725h.99v-2.055h2.115v2.055h1.86v1.725h-1.86zm7.06 6.72c-.8 0-1.52-.175-2.16-.525a3.938 3.938 0 0 1-1.515-1.515c-.36-.65-.54-1.4-.54-2.25 0-.85.185-1.6.555-2.25.38-.65.895-1.15 1.545-1.5.65-.36 1.375-.54 2.175-.54.8 0 1.525.18 2.175.54.65.35 1.16.85 1.53 1.5.38.65.57 1.4.57 2.25 0 .85-.195 1.6-.585 2.25-.38.65-.9 1.155-1.56 1.515-.65.35-1.38.525-2.19.525zm0-1.83c.38 0 .735-.09 1.065-.27.34-.19.61-.47.81-.84.2-.37.3-.82.3-1.35 0-.79-.21-1.395-.63-1.815a2.01 2.01 0 0 0-1.515-.645c-.6 0-1.105.215-1.515.645-.4.42-.6 1.025-.6 1.815s.195 1.4.585 1.83c.4.42.9.63 1.5.63zm8.91-2.46c0-.86.175-1.61.525-2.25a3.69 3.69 0 0 1 1.455-1.5c.62-.36 1.33-.54 2.13-.54 1.03 0 1.88.26 2.55.78.68.51 1.135 1.23 1.365 2.16h-2.265c-.12-.36-.325-.64-.615-.84-.28-.21-.63-.315-1.05-.315-.6 0-1.075.22-1.425.66-.35.43-.525 1.045-.525 1.845 0 .79.175 1.405.525 1.845.35.43.825.645 1.425.645.85 0 1.405-.38 1.665-1.14h2.265c-.23.9-.685 1.615-1.365 2.145-.68.53-1.53.795-2.55.795-.8 0-1.51-.175-2.13-.525a3.817 3.817 0 0 1-1.455-1.5c-.35-.65-.525-1.405-.525-2.265zm14.244-4.275c.63 0 1.19.14 1.68.42.49.27.87.675 1.14 1.215.28.53.42 1.17.42 1.92V284h-2.1v-4.59c0-.66-.165-1.165-.495-1.515-.33-.36-.78-.54-1.35-.54-.58 0-1.04.18-1.38.54-.33.35-.495.855-.495 1.515V284h-2.1v-11.1h2.1v3.825c.27-.36.63-.64 1.08-.84.45-.21.95-.315 1.5-.315zm4.697 4.245c0-.84.165-1.585.495-2.235.34-.65.795-1.15 1.365-1.5a3.673 3.673 0 0 1 1.935-.525c.62 0 1.16.125 1.62.375.47.25.845.565 1.125.945v-1.185h2.115V284h-2.115v-1.215c-.27.39-.645.715-1.125.975-.47.25-1.015.375-1.635.375-.7 0-1.34-.18-1.92-.54-.57-.36-1.025-.865-1.365-1.515-.33-.66-.495-1.415-.495-2.265zm6.54.03c0-.51-.1-.945-.3-1.305-.2-.37-.47-.65-.81-.84-.34-.2-.705-.3-1.095-.3s-.75.095-1.08.285c-.33.19-.6.47-.81.84-.2.36-.3.79-.3 1.29s.1.94.3 1.32c.21.37.48.655.81.855.34.2.7.3 1.08.3.39 0 .755-.095 1.095-.285.34-.2.61-.48.81-.84.2-.37.3-.81.3-1.32zm8.771-4.275c.99 0 1.79.315 2.4.945.61.62.915 1.49.915 2.61V284h-2.1v-4.59c0-.66-.165-1.165-.495-1.515-.33-.36-.78-.54-1.35-.54-.58 0-1.04.18-1.38.54-.33.35-.495.855-.495 1.515V284h-2.1v-8.31h2.1v1.035c.28-.36.635-.64 1.065-.84a3.3 3.3 0 0 1 1.44-.315zm8.567-.015c.62 0 1.165.125 1.635.375.47.24.84.555 1.11.945v-1.185h2.115v8.37c0 .77-.155 1.455-.465 2.055-.31.61-.775 1.09-1.395 1.44-.62.36-1.37.54-2.25.54-1.18 0-2.15-.275-2.91-.825-.75-.55-1.175-1.3-1.275-2.25H807c.11.38.345.68.705.9.37.23.815.345 1.335.345.61 0 1.105-.185 1.485-.555.38-.36.57-.91.57-1.65v-1.29c-.27.39-.645.715-1.125.975-.47.26-1.01.39-1.62.39-.7 0-1.34-.18-1.92-.54a3.824 3.824 0 0 1-1.38-1.515c-.33-.66-.495-1.415-.495-2.265 0-.84.165-1.585.495-2.235.34-.65.795-1.15 1.365-1.5a3.673 3.673 0 0 1 1.935-.525zm2.745 4.29c0-.51-.1-.945-.3-1.305-.2-.37-.47-.65-.81-.84-.34-.2-.705-.3-1.095-.3s-.75.095-1.08.285c-.33.19-.6.47-.81.84-.2.36-.3.79-.3 1.29s.1.94.3 1.32c.21.37.48.655.81.855.34.2.7.3 1.08.3.39 0 .755-.095 1.095-.285.34-.2.61-.48.81-.84.2-.37.3-.81.3-1.32zm11.891-.18c0 .3-.02.57-.06.81h-6.075c.05.6.26 1.07.63 1.41.37.34.825.51 1.365.51.78 0 1.335-.335 1.665-1.005h2.265c-.24.8-.7 1.46-1.38 1.98-.68.51-1.515.765-2.505.765-.8 0-1.52-.175-2.16-.525a3.864 3.864 0 0 1-1.485-1.515c-.35-.65-.525-1.4-.525-2.25 0-.86.175-1.615.525-2.265.35-.65.84-1.15 1.47-1.5.63-.35 1.355-.525 2.175-.525.79 0 1.495.17 2.115.51.63.34 1.115.825 1.455 1.455.35.62.525 1.335.525 2.145zm-2.175-.6c-.01-.54-.205-.97-.585-1.29-.38-.33-.845-.495-1.395-.495-.52 0-.96.16-1.32.48-.35.31-.565.745-.645 1.305h3.945zm9.727-1.65v4.02c0 .28.065.485.195.615.14.12.37.18.69.18h.975V284h-1.32c-1.77 0-2.655-.86-2.655-2.58v-4.005h-.99v-1.725h.99v-2.055h2.115v2.055h1.86v1.725h-1.86zm8.05-1.845c.63 0 1.19.14 1.68.42.49.27.87.675 1.14 1.215.28.53.42 1.17.42 1.92V284h-2.1v-4.59c0-.66-.165-1.165-.495-1.515-.33-.36-.78-.54-1.35-.54-.58 0-1.04.18-1.38.54-.33.35-.495.855-.495 1.515V284h-2.1v-11.1h2.1v3.825c.27-.36.63-.64 1.08-.84.45-.21.95-.315 1.5-.315zm12.962 4.095c0 .3-.02.57-.06.81h-6.075c.05.6.26 1.07.63 1.41.37.34.825.51 1.365.51.78 0 1.335-.335 1.665-1.005h2.265c-.24.8-.7 1.46-1.38 1.98-.68.51-1.515.765-2.505.765-.8 0-1.52-.175-2.16-.525a3.864 3.864 0 0 1-1.485-1.515c-.35-.65-.525-1.4-.525-2.25 0-.86.175-1.615.525-2.265.35-.65.84-1.15 1.47-1.5.63-.35 1.355-.525 2.175-.525.79 0 1.495.17 2.115.51.63.34 1.115.825 1.455 1.455.35.62.525 1.335.525 2.145zm-2.175-.6c-.01-.54-.205-.97-.585-1.29-.38-.33-.845-.495-1.395-.495-.52 0-.96.16-1.32.48-.35.31-.565.745-.645 1.305h3.945zm14.028-3.495c1.02 0 1.84.315 2.46.945.63.62.945 1.49.945 2.61V284h-2.1v-4.59c0-.65-.165-1.145-.495-1.485-.33-.35-.78-.525-1.35-.525-.57 0-1.025.175-1.365.525-.33.34-.495.835-.495 1.485V284h-2.1v-4.59c0-.65-.165-1.145-.495-1.485-.33-.35-.78-.525-1.35-.525-.58 0-1.04.175-1.38.525-.33.34-.495.835-.495 1.485V284h-2.1v-8.31h2.1v1.005a2.81 2.81 0 0 1 1.035-.825c.43-.2.9-.3 1.41-.3.65 0 1.23.14 1.74.42.51.27.905.66 1.185 1.17.27-.48.66-.865 1.17-1.155.52-.29 1.08-.435 1.68-.435zm11.417 1.845v4.02c0 .28.065.485.195.615.14.12.37.18.69.18h.975V284h-1.32c-1.77 0-2.655-.86-2.655-2.58v-4.005h-.99v-1.725h.99v-2.055h2.115v2.055h1.86v1.725h-1.86zm8.05-1.845c.63 0 1.19.14 1.68.42.49.27.87.675 1.14 1.215.28.53.42 1.17.42 1.92V284h-2.1v-4.59c0-.66-.165-1.165-.495-1.515-.33-.36-.78-.54-1.35-.54-.58 0-1.04.18-1.38.54-.33.35-.495.855-.495 1.515V284h-2.1v-11.1h2.1v3.825c.27-.36.63-.64 1.08-.84.45-.21.95-.315 1.5-.315zm12.962 4.095c0 .3-.02.57-.06.81h-6.075c.05.6.26 1.07.63 1.41.37.34.825.51 1.365.51.78 0 1.335-.335 1.665-1.005h2.265c-.24.8-.7 1.46-1.38 1.98-.68.51-1.515.765-2.505.765-.8 0-1.52-.175-2.16-.525a3.864 3.864 0 0 1-1.485-1.515c-.35-.65-.525-1.4-.525-2.25 0-.86.175-1.615.525-2.265.35-.65.84-1.15 1.47-1.5.63-.35 1.355-.525 2.175-.525.79 0 1.495.17 2.115.51.63.34 1.115.825 1.455 1.455.35.62.525 1.335.525 2.145zm-2.175-.6c-.01-.54-.205-.97-.585-1.29-.38-.33-.845-.495-1.395-.495-.52 0-.96.16-1.32.48-.35.31-.565.745-.645 1.305h3.945zm11.887-3.495c.99 0 1.79.315 2.4.945.61.62.915 1.49.915 2.61V284h-2.1v-4.59c0-.66-.165-1.165-.495-1.515-.33-.36-.78-.54-1.35-.54-.58 0-1.04.18-1.38.54-.33.35-.495.855-.495 1.515V284h-2.1v-8.31h2.1v1.035c.28-.36.635-.64 1.065-.84a3.3 3.3 0 0 1 1.44-.315zm13.037 4.095c0 .3-.02.57-.06.81h-6.075c.05.6.26 1.07.63 1.41.37.34.825.51 1.365.51.78 0 1.335-.335 1.665-1.005h2.265c-.24.8-.7 1.46-1.38 1.98-.68.51-1.515.765-2.505.765-.8 0-1.52-.175-2.16-.525a3.864 3.864 0 0 1-1.485-1.515c-.35-.65-.525-1.4-.525-2.25 0-.86.175-1.615.525-2.265.35-.65.84-1.15 1.47-1.5.63-.35 1.355-.525 2.175-.525.79 0 1.495.17 2.115.51.63.34 1.115.825 1.455 1.455.35.62.525 1.335.525 2.145zm-2.175-.6c-.01-.54-.205-.97-.585-1.29-.38-.33-.845-.495-1.395-.495-.52 0-.96.16-1.32.48-.35.31-.565.745-.645 1.305h3.945zm8.298 4.935-1.71-2.58-1.515 2.58h-2.25l2.715-4.17-2.745-4.14h2.37l1.695 2.565 1.53-2.565h2.25l-2.73 4.14 2.76 4.17h-2.37zm5.956-6.585v4.02c0 .28.065.485.195.615.14.12.37.18.69.18h.975V284h-1.32c-1.77 0-2.655-.86-2.655-2.58v-4.005h-.99v-1.725h.99v-2.055h2.115v2.055h1.86v1.725h-1.86zm10.124 6.72c-.68 0-1.29-.12-1.83-.36-.54-.25-.97-.585-1.29-1.005-.31-.42-.48-.885-.51-1.395h2.115c.04.32.195.585.465.795.28.21.625.315 1.035.315.4 0 .71-.08.93-.24.23-.16.345-.365.345-.615 0-.27-.14-.47-.42-.6-.27-.14-.705-.29-1.305-.45-.62-.15-1.13-.305-1.53-.465a2.72 2.72 0 0 1-1.02-.735c-.28-.33-.42-.775-.42-1.335 0-.46.13-.88.39-1.26.27-.38.65-.68 1.14-.9.5-.22 1.085-.33 1.755-.33.99 0 1.78.25 2.37.75.59.49.915 1.155.975 1.995h-2.01c-.03-.33-.17-.59-.42-.78-.24-.2-.565-.3-.975-.3-.38 0-.675.07-.885.21-.2.14-.3.335-.3.585 0 .28.14.495.42.645.28.14.715.285 1.305.435.6.15 1.095.305 1.485.465.39.16.725.41 1.005.75.29.33.44.77.45 1.32 0 .48-.135.91-.405 1.29-.26.38-.64.68-1.14.9-.49.21-1.065.315-1.725.315zm7.439-6.72v4.02c0 .28.065.485.195.615.14.12.37.18.69.18h.975V284h-1.32c-1.77 0-2.655-.86-2.655-2.58v-4.005h-.99v-1.725h.99v-2.055h2.115v2.055h1.86v1.725h-1.86zm11.096 2.25c0 .3-.02.57-.06.81h-6.075c.05.6.26 1.07.63 1.41.37.34.825.51 1.365.51.78 0 1.335-.335 1.665-1.005h2.265c-.24.8-.7 1.46-1.38 1.98-.68.51-1.515.765-2.505.765-.8 0-1.52-.175-2.16-.525a3.864 3.864 0 0 1-1.485-1.515c-.35-.65-.525-1.4-.525-2.25 0-.86.175-1.615.525-2.265.35-.65.84-1.15 1.47-1.5.63-.35 1.355-.525 2.175-.525.79 0 1.495.17 2.115.51.63.34 1.115.825 1.455 1.455.35.62.525 1.335.525 2.145zm-2.175-.6c-.01-.54-.205-.97-.585-1.29-.38-.33-.845-.495-1.395-.495-.52 0-.96.16-1.32.48-.35.31-.565.745-.645 1.305h3.945zm5.807-2.175c.27-.38.64-.695 1.11-.945.48-.26 1.025-.39 1.635-.39a3.596 3.596 0 0 1 3.285 2.025c.34.64.51 1.385.51 2.235 0 .85-.17 1.605-.51 2.265a3.72 3.72 0 0 1-1.365 1.515c-.57.36-1.21.54-1.92.54-.61 0-1.15-.125-1.62-.375a3.482 3.482 0 0 1-1.125-.945v5.145h-2.1v-12.27h2.1v1.2zm4.395 2.925c0-.5-.105-.93-.315-1.29-.2-.37-.47-.65-.81-.84-.33-.19-.69-.285-1.08-.285-.38 0-.74.1-1.08.3-.33.19-.6.47-.81.84-.2.37-.3.805-.3 1.305 0 .5.1.935.3 1.305.21.37.48.655.81.855.34.19.7.285 1.08.285.39 0 .75-.1 1.08-.3.34-.2.61-.485.81-.855.21-.37.315-.81.315-1.32zm3.131 7.14v-.21a10.705 10.705 0 0 0 2.325-3.675c.55-1.42.825-2.89.825-4.41 0-1.56-.29-3.075-.87-4.545a10.298 10.298 0 0 0-2.505-3.78v-.195h2.115c1.07.96 1.885 2.195 2.445 3.705.56 1.5.84 3.105.84 4.815 0 1.67-.27 3.235-.81 4.695-.53 1.46-1.28 2.66-2.25 3.6h-2.115z"/><path fill="#333" d="M85.988 130.536v4.384h-5.952V153h-5.472v-18.08h-5.952v-4.384h17.376zm19.578 13.248c0 .512-.032 1.045-.096 1.6H93.086c.085 1.109.437 1.963 1.056 2.56.64.576 1.419.864 2.336.864 1.365 0 2.315-.576 2.848-1.728h5.824a7.901 7.901 0 0 1-1.632 3.168c-.768.939-1.739 1.675-2.912 2.208-1.173.533-2.485.8-3.936.8-1.75 0-3.307-.373-4.672-1.12a7.967 7.967 0 0 1-3.2-3.2c-.768-1.387-1.152-3.008-1.152-4.864 0-1.856.373-3.477 1.12-4.864a7.967 7.967 0 0 1 3.2-3.2c1.365-.747 2.933-1.12 4.704-1.12 1.728 0 3.264.363 4.608 1.088a7.708 7.708 0 0 1 3.136 3.104c.768 1.344 1.152 2.912 1.152 4.704zm-5.6-1.44c0-.939-.32-1.685-.96-2.24-.64-.555-1.44-.832-2.4-.832-.917 0-1.696.267-2.336.8-.619.533-1.003 1.291-1.152 2.272h6.848zm13.959-13.024V153h-5.472v-23.68h5.472zm9.437 0V153h-5.472v-23.68h5.472zm28.379 5.824V153h-5.472v-2.432c-.555.789-1.312 1.429-2.272 1.92-.939.469-1.984.704-3.136.704-1.365 0-2.571-.299-3.616-.896-1.045-.619-1.856-1.504-2.432-2.656-.576-1.152-.864-2.507-.864-4.064v-10.432h5.44v9.696c0 1.195.309 2.123.928 2.784.619.661 1.451.992 2.496.992 1.067 0 1.909-.331 2.528-.992s.928-1.589.928-2.784v-9.696h5.472zm11.195 18.112c-1.558 0-2.944-.267-4.16-.8-1.216-.533-2.176-1.259-2.88-2.176a5.847 5.847 0 0 1-1.184-3.136h5.408c.064.619.352 1.12.864 1.504.512.384 1.141.576 1.888.576.682 0 1.205-.128 1.568-.384.384-.277.576-.629.576-1.056 0-.512-.267-.885-.8-1.12-.534-.256-1.398-.533-2.592-.832-1.28-.299-2.347-.608-3.2-.928a5.732 5.732 0 0 1-2.208-1.568c-.619-.725-.928-1.696-.928-2.912 0-1.024.277-1.952.832-2.784.576-.853 1.408-1.525 2.496-2.016 1.109-.491 2.421-.736 3.936-.736 2.24 0 4 .555 5.28 1.664 1.301 1.109 2.048 2.581 2.24 4.416h-5.056c-.086-.619-.363-1.109-.832-1.472-.448-.363-1.046-.544-1.792-.544-.64 0-1.131.128-1.472.384-.342.235-.512.565-.512.992 0 .512.266.896.8 1.152.554.256 1.408.512 2.56.768 1.322.341 2.4.683 3.232 1.024.832.32 1.557.853 2.176 1.6.64.725.97 1.707.992 2.944a4.714 4.714 0 0 1-.896 2.816c-.576.811-1.419 1.451-2.528 1.92-1.088.469-2.358.704-3.808.704zm16.273-9.216c0-1.835.341-3.445 1.024-4.832.704-1.387 1.653-2.453 2.848-3.2 1.194-.747 2.528-1.12 4-1.12 1.258 0 2.357.256 3.296.768.96.512 1.696 1.184 2.208 2.016v-2.528h5.472V153h-5.472v-2.528c-.534.832-1.28 1.504-2.24 2.016-.939.512-2.038.768-3.296.768-1.451 0-2.774-.373-3.968-1.12-1.195-.768-2.144-1.845-2.848-3.232-.683-1.408-1.024-3.029-1.024-4.864zm13.376.032c0-1.365-.384-2.443-1.152-3.232-.747-.789-1.664-1.184-2.752-1.184-1.088 0-2.016.395-2.784 1.184-.747.768-1.12 1.835-1.12 3.2 0 1.365.373 2.453 1.12 3.264.768.789 1.696 1.184 2.784 1.184 1.088 0 2.005-.395 2.752-1.184.768-.789 1.152-1.867 1.152-3.232zm14.902-6.4c.512-.832 1.248-1.504 2.208-2.016.96-.512 2.059-.768 3.296-.768 1.472 0 2.806.373 4 1.12 1.195.747 2.134 1.813 2.816 3.2.704 1.387 1.056 2.997 1.056 4.832s-.352 3.456-1.056 4.864c-.682 1.387-1.621 2.464-2.816 3.232-1.194.747-2.528 1.12-4 1.12-1.258 0-2.357-.245-3.296-.736-.938-.512-1.674-1.184-2.208-2.016V153h-5.472v-23.68h5.472v8.352zm7.808 6.368c0-1.365-.384-2.432-1.152-3.2-.746-.789-1.674-1.184-2.784-1.184-1.088 0-2.016.395-2.784 1.184-.746.789-1.12 1.867-1.12 3.232 0 1.365.374 2.443 1.12 3.232.768.789 1.696 1.184 2.784 1.184 1.088 0 2.016-.395 2.784-1.184.768-.811 1.152-1.899 1.152-3.264zm16.567 9.216c-1.749 0-3.328-.373-4.736-1.12a8.337 8.337 0 0 1-3.296-3.2c-.789-1.387-1.184-3.008-1.184-4.864 0-1.835.405-3.445 1.216-4.832.811-1.408 1.92-2.485 3.328-3.232 1.408-.747 2.987-1.12 4.736-1.12 1.749 0 3.328.373 4.736 1.12 1.408.747 2.517 1.824 3.328 3.232.811 1.387 1.216 2.997 1.216 4.832s-.416 3.456-1.248 4.864a8.233 8.233 0 0 1-3.36 3.2c-1.408.747-2.987 1.12-4.736 1.12zm0-4.736c1.045 0 1.931-.384 2.656-1.152.747-.768 1.12-1.867 1.12-3.296 0-1.429-.363-2.528-1.088-3.296-.704-.768-1.579-1.152-2.624-1.152-1.067 0-1.952.384-2.656 1.152-.704.747-1.056 1.845-1.056 3.296 0 1.429.341 2.528 1.024 3.296.704.768 1.579 1.152 2.624 1.152zm29.879-13.376V153h-5.472v-2.432c-.555.789-1.312 1.429-2.272 1.92-.939.469-1.984.704-3.136.704-1.365 0-2.571-.299-3.616-.896-1.045-.619-1.856-1.504-2.432-2.656-.576-1.152-.864-2.507-.864-4.064v-10.432h5.44v9.696c0 1.195.309 2.123.928 2.784.619.661 1.451.992 2.496.992 1.067 0 1.909-.331 2.528-.992s.928-1.589.928-2.784v-9.696h5.472zm13.883 13.216V153h-2.784c-1.984 0-3.531-.48-4.64-1.44-1.11-.981-1.664-2.571-1.664-4.768v-7.104h-2.176v-4.544h2.176v-4.352h5.472v4.352h3.584v4.544h-3.584v7.168c0 .533.128.917.384 1.152.256.235.682.352 1.28.352h1.952zm28.069-13.216-11.2 26.336h-5.888l4.096-9.088-7.264-17.248h6.112l4.128 11.168 4.096-11.168h5.92zm10.107 18.112c-1.75 0-3.328-.373-4.736-1.12a8.33 8.33 0 0 1-3.296-3.2c-.79-1.387-1.184-3.008-1.184-4.864 0-1.835.405-3.445 1.215-4.832a8.229 8.229 0 0 1 3.329-3.232c1.408-.747 2.986-1.12 4.736-1.12 1.749 0 3.328.373 4.736 1.12 1.408.747 2.517 1.824 3.328 3.232.81 1.387 1.216 2.997 1.216 4.832s-.416 3.456-1.248 4.864a8.233 8.233 0 0 1-3.36 3.2c-1.408.747-2.987 1.12-4.736 1.12zm0-4.736c1.045 0 1.93-.384 2.656-1.152.746-.768 1.12-1.867 1.12-3.296 0-1.429-.363-2.528-1.088-3.296-.704-.768-1.579-1.152-2.624-1.152-1.067 0-1.952.384-2.656 1.152-.704.747-1.056 1.845-1.056 3.296 0 1.429.341 2.528 1.024 3.296.704.768 1.578 1.152 2.624 1.152zm29.879-13.376V153h-5.472v-2.432c-.555.789-1.312 1.429-2.272 1.92-.939.469-1.984.704-3.136.704-1.366 0-2.571-.299-3.616-.896-1.046-.619-1.856-1.504-2.432-2.656-.576-1.152-.864-2.507-.864-4.064v-10.432h5.44v9.696c0 1.195.309 2.123.928 2.784.618.661 1.45.992 2.496.992 1.066 0 1.909-.331 2.528-.992.618-.661.928-1.589.928-2.784v-9.696h5.472zm9.402 2.976c.64-.981 1.44-1.749 2.4-2.304.96-.576 2.027-.864 3.2-.864v5.792h-1.504c-1.365 0-2.389.299-3.072.896-.683.576-1.024 1.6-1.024 3.072V153h-5.472v-17.856h5.472v2.976zm15.48 15.136c-1.558 0-2.944-.267-4.16-.8-1.216-.533-2.176-1.259-2.88-2.176a5.847 5.847 0 0 1-1.184-3.136h5.408c.064.619.352 1.12.864 1.504.512.384 1.141.576 1.888.576.682 0 1.205-.128 1.568-.384.384-.277.576-.629.576-1.056 0-.512-.267-.885-.8-1.12-.534-.256-1.398-.533-2.592-.832-1.28-.299-2.347-.608-3.2-.928a5.732 5.732 0 0 1-2.208-1.568c-.619-.725-.928-1.696-.928-2.912 0-1.024.277-1.952.832-2.784.576-.853 1.408-1.525 2.496-2.016 1.109-.491 2.421-.736 3.936-.736 2.24 0 4 .555 5.28 1.664 1.301 1.109 2.048 2.581 2.24 4.416h-5.056c-.086-.619-.363-1.109-.832-1.472-.448-.363-1.046-.544-1.792-.544-.64 0-1.131.128-1.472.384-.342.235-.512.565-.512.992 0 .512.266.896.8 1.152.554.256 1.408.512 2.56.768 1.322.341 2.4.683 3.232 1.024.832.32 1.557.853 2.176 1.6.64.725.97 1.707.992 2.944a4.714 4.714 0 0 1-.896 2.816c-.576.811-1.419 1.451-2.528 1.92-1.088.469-2.358.704-3.808.704zm27.411-9.472c0 .512-.032 1.045-.096 1.6h-12.384c.086 1.109.438 1.963 1.056 2.56.64.576 1.419.864 2.336.864 1.366 0 2.315-.576 2.848-1.728h5.824a7.876 7.876 0 0 1-1.632 3.168c-.768.939-1.738 1.675-2.912 2.208-1.173.533-2.485.8-3.936.8-1.749 0-3.306-.373-4.672-1.12a7.968 7.968 0 0 1-3.2-3.2c-.768-1.387-1.152-3.008-1.152-4.864 0-1.856.374-3.477 1.12-4.864a7.968 7.968 0 0 1 3.2-3.2c1.366-.747 2.934-1.12 4.704-1.12 1.728 0 3.264.363 4.608 1.088a7.702 7.702 0 0 1 3.136 3.104c.768 1.344 1.152 2.912 1.152 4.704zm-5.6-1.44c0-.939-.32-1.685-.96-2.24-.64-.555-1.44-.832-2.4-.832-.917 0-1.696.267-2.336.8-.618.533-1.002 1.291-1.152 2.272h6.848zm13.959-13.024V153h-5.472v-23.68h5.472zm12.926 10.368h-2.945V153h-5.471v-13.312h-1.984v-4.544h1.984v-.512c0-2.197.629-3.861 1.888-4.992 1.258-1.152 3.104-1.728 5.536-1.728.405 0 .704.011.896.032v4.64c-1.046-.064-1.782.085-2.208.448-.427.363-.641 1.013-.641 1.952v.16h2.945v4.544zm8.459 8.256-3.552 9.184h-3.488l1.856-9.184h5.184zm28.321-12.8-11.2 26.336h-5.888l4.096-9.088-7.265-17.248h6.113l4.128 11.168 4.096-11.168h5.92zm10.106 18.112c-1.749 0-3.328-.373-4.736-1.12a8.343 8.343 0 0 1-3.296-3.2c-.789-1.387-1.184-3.008-1.184-4.864 0-1.835.406-3.445 1.216-4.832.811-1.408 1.92-2.485 3.328-3.232 1.408-.747 2.987-1.12 4.736-1.12 1.75 0 3.328.373 4.736 1.12a8.22 8.22 0 0 1 3.328 3.232c.811 1.387 1.216 2.997 1.216 4.832s-.416 3.456-1.248 4.864a8.221 8.221 0 0 1-3.36 3.2c-1.408.747-2.986 1.12-4.736 1.12zm0-4.736c1.046 0 1.931-.384 2.656-1.152.747-.768 1.12-1.867 1.12-3.296 0-1.429-.362-2.528-1.088-3.296-.704-.768-1.578-1.152-2.624-1.152-1.066 0-1.952.384-2.656 1.152-.704.747-1.056 1.845-1.056 3.296 0 1.429.342 2.528 1.024 3.296.704.768 1.579 1.152 2.624 1.152zm29.879-13.376V153h-5.472v-2.432c-.554.789-1.312 1.429-2.272 1.92-.938.469-1.984.704-3.136.704-1.365 0-2.57-.299-3.616-.896-1.045-.619-1.856-1.504-2.432-2.656-.576-1.152-.864-2.507-.864-4.064v-10.432h5.44v9.696c0 1.195.31 2.123.928 2.784.619.661 1.451.992 2.496.992 1.067 0 1.91-.331 2.528-.992.619-.661.928-1.589.928-2.784v-9.696h5.472zm9.403 2.976c.64-.981 1.44-1.749 2.4-2.304.96-.576 2.026-.864 3.2-.864v5.792h-1.504c-1.366 0-2.39.299-3.072.896-.683.576-1.024 1.6-1.024 3.072V153h-5.472v-17.856h5.472v2.976zm17.749-4.832c-.96 0-1.75-.277-2.368-.832a2.82 2.82 0 0 1-.896-2.112c0-.853.298-1.557.896-2.112.618-.576 1.408-.864 2.368-.864.938 0 1.706.288 2.304.864.618.555.928 1.259.928 2.112 0 .832-.31 1.536-.928 2.112-.598.555-1.366.832-2.304.832zm2.72 1.856V153h-5.472v-17.856h5.472zm14.845-.192c2.091 0 3.755.683 4.992 2.048 1.259 1.344 1.888 3.2 1.888 5.568V153h-5.44v-9.696c0-1.195-.309-2.123-.928-2.784-.619-.661-1.451-.992-2.496-.992s-1.877.331-2.496.992-.928 1.589-.928 2.784V153h-5.472v-17.856h5.472v2.368c.555-.789 1.301-1.408 2.24-1.856.939-.469 1.995-.704 3.168-.704zm20.635 13.408V153h-2.784c-1.984 0-3.531-.48-4.64-1.44-1.11-.981-1.664-2.571-1.664-4.768v-7.104h-2.176v-4.544h2.176v-4.352h5.472v4.352h3.584v4.544h-3.584v7.168c0 .533.128.917.384 1.152.256.235.682.352 1.28.352h1.952zm19.879-4.576c0 .512-.031 1.045-.095 1.6h-12.384c.085 1.109.437 1.963 1.056 2.56.64.576 1.418.864 2.336.864 1.365 0 2.314-.576 2.848-1.728h5.824a7.901 7.901 0 0 1-1.632 3.168c-.768.939-1.739 1.675-2.912 2.208-1.174.533-2.486.8-3.936.8-1.75 0-3.307-.373-4.672-1.12a7.962 7.962 0 0 1-3.2-3.2c-.768-1.387-1.152-3.008-1.152-4.864 0-1.856.373-3.477 1.12-4.864a7.962 7.962 0 0 1 3.2-3.2c1.365-.747 2.933-1.12 4.704-1.12 1.728 0 3.264.363 4.608 1.088a7.708 7.708 0 0 1 3.136 3.104c.768 1.344 1.151 2.912 1.151 4.704zm-5.599-1.44c0-.939-.32-1.685-.96-2.24-.64-.555-1.44-.832-2.4-.832-.918 0-1.696.267-2.336.8-.619.533-1.003 1.291-1.152 2.272h6.848zm13.958-4.224c.64-.981 1.44-1.749 2.4-2.304.96-.576 2.027-.864 3.2-.864v5.792h-1.504c-1.365 0-2.389.299-3.072.896-.682.576-1.024 1.6-1.024 3.072V153h-5.472v-17.856h5.472v2.976zm25.048 5.664c0 .512-.032 1.045-.096 1.6H600.18c.085 1.109.437 1.963 1.056 2.56.64.576 1.418.864 2.336.864 1.365 0 2.314-.576 2.848-1.728h5.824a7.901 7.901 0 0 1-1.632 3.168c-.768.939-1.739 1.675-2.912 2.208-1.174.533-2.486.8-3.936.8-1.75 0-3.307-.373-4.672-1.12a7.962 7.962 0 0 1-3.2-3.2c-.768-1.387-1.152-3.008-1.152-4.864 0-1.856.373-3.477 1.12-4.864a7.962 7.962 0 0 1 3.2-3.2c1.365-.747 2.933-1.12 4.704-1.12 1.728 0 3.264.363 4.608 1.088a7.708 7.708 0 0 1 3.136 3.104c.768 1.344 1.152 2.912 1.152 4.704zm-5.6-1.44c0-.939-.32-1.685-.96-2.24-.64-.555-1.44-.832-2.4-.832-.918 0-1.696.267-2.336.8-.619.533-1.003 1.291-1.152 2.272h6.848zm15.751 10.912c-1.558 0-2.944-.267-4.16-.8-1.216-.533-2.176-1.259-2.88-2.176a5.847 5.847 0 0 1-1.184-3.136h5.408c.064.619.352 1.12.864 1.504.512.384 1.141.576 1.888.576.682 0 1.205-.128 1.568-.384.384-.277.576-.629.576-1.056 0-.512-.267-.885-.8-1.12-.534-.256-1.398-.533-2.592-.832-1.28-.299-2.347-.608-3.2-.928a5.732 5.732 0 0 1-2.208-1.568c-.619-.725-.928-1.696-.928-2.912 0-1.024.277-1.952.832-2.784.576-.853 1.408-1.525 2.496-2.016 1.109-.491 2.421-.736 3.936-.736 2.24 0 4 .555 5.28 1.664 1.301 1.109 2.048 2.581 2.24 4.416h-5.056c-.086-.619-.363-1.109-.832-1.472-.448-.363-1.046-.544-1.792-.544-.64 0-1.131.128-1.472.384-.342.235-.512.565-.512.992 0 .512.266.896.8 1.152.554.256 1.408.512 2.56.768 1.322.341 2.4.683 3.232 1.024.832.32 1.557.853 2.176 1.6.64.725.97 1.707.992 2.944a4.714 4.714 0 0 1-.896 2.816c-.576.811-1.419 1.451-2.528 1.92-1.088.469-2.358.704-3.808.704zm20.531-4.896V153h-2.784c-1.984 0-3.53-.48-4.64-1.44-1.109-.981-1.664-2.571-1.664-4.768v-7.104h-2.176v-4.544h2.176v-4.352h5.472v4.352h3.584v4.544h-3.584v7.168c0 .533.128.917.384 1.152.256.235.683.352 1.28.352h1.952zm10.312 4.896c-1.557 0-2.944-.267-4.16-.8-1.216-.533-2.176-1.259-2.88-2.176a5.855 5.855 0 0 1-1.184-3.136h5.408c.064.619.352 1.12.864 1.504.512.384 1.142.576 1.888.576.683 0 1.206-.128 1.568-.384.384-.277.576-.629.576-1.056 0-.512-.266-.885-.8-1.12-.533-.256-1.397-.533-2.592-.832-1.28-.299-2.346-.608-3.2-.928a5.747 5.747 0 0 1-2.208-1.568c-.618-.725-.928-1.696-.928-2.912 0-1.024.278-1.952.832-2.784.576-.853 1.408-1.525 2.496-2.016 1.11-.491 2.422-.736 3.936-.736 2.24 0 4 .555 5.28 1.664 1.302 1.109 2.048 2.581 2.24 4.416h-5.056c-.085-.619-.362-1.109-.832-1.472-.448-.363-1.045-.544-1.792-.544-.64 0-1.13.128-1.472.384-.341.235-.512.565-.512.992 0 .512.267.896.8 1.152.555.256 1.408.512 2.56.768 1.323.341 2.4.683 3.232 1.024.832.32 1.558.853 2.176 1.6.64.725.971 1.707.992 2.944a4.707 4.707 0 0 1-.896 2.816c-.576.811-1.418 1.451-2.528 1.92-1.088.469-2.357.704-3.808.704zm16.468-5.312-3.552 9.184h-3.488l1.856-9.184h5.184zm28.321-12.8-11.2 26.336h-5.888l4.096-9.088-7.264-17.248h6.112l4.128 11.168 4.096-11.168h5.92zm10.107 18.112c-1.75 0-3.328-.373-4.736-1.12a8.33 8.33 0 0 1-3.296-3.2c-.79-1.387-1.184-3.008-1.184-4.864 0-1.835.405-3.445 1.215-4.832a8.229 8.229 0 0 1 3.329-3.232c1.408-.747 2.986-1.12 4.736-1.12 1.749 0 3.328.373 4.736 1.12 1.408.747 2.517 1.824 3.328 3.232.81 1.387 1.216 2.997 1.216 4.832s-.416 3.456-1.248 4.864a8.233 8.233 0 0 1-3.36 3.2c-1.408.747-2.987 1.12-4.736 1.12zm0-4.736c1.045 0 1.93-.384 2.656-1.152.746-.768 1.12-1.867 1.12-3.296 0-1.429-.363-2.528-1.088-3.296-.704-.768-1.579-1.152-2.624-1.152-1.067 0-1.952.384-2.656 1.152-.704.747-1.056 1.845-1.056 3.296 0 1.429.341 2.528 1.024 3.296.704.768 1.578 1.152 2.624 1.152zm29.879-13.376V153h-5.472v-2.432c-.555.789-1.312 1.429-2.272 1.92-.939.469-1.984.704-3.136.704-1.366 0-2.571-.299-3.616-.896-1.046-.619-1.856-1.504-2.432-2.656-.576-1.152-.864-2.507-.864-4.064v-10.432h5.44v9.696c0 1.195.309 2.123.928 2.784.618.661 1.45.992 2.496.992 1.066 0 1.909-.331 2.528-.992.618-.661.928-1.589.928-2.784v-9.696h5.472zm9.402 2.976c.64-.981 1.44-1.749 2.4-2.304.96-.576 2.027-.864 3.2-.864v5.792h-1.504c-1.365 0-2.389.299-3.072.896-.683.576-1.024 1.6-1.024 3.072V153h-5.472v-17.856h5.472v2.976zm40.629-2.976L783.628 153h-6.048l-2.816-11.584L771.852 153h-6.016l-4.864-17.856h5.472l2.528 12.768 3.008-12.768h5.792l3.04 12.704 2.496-12.704h5.152zm10.215 18.112c-1.75 0-3.328-.373-4.736-1.12a8.33 8.33 0 0 1-3.296-3.2c-.79-1.387-1.184-3.008-1.184-4.864 0-1.835.405-3.445 1.215-4.832a8.229 8.229 0 0 1 3.329-3.232c1.408-.747 2.986-1.12 4.736-1.12 1.749 0 3.328.373 4.736 1.12 1.408.747 2.517 1.824 3.328 3.232.81 1.387 1.216 2.997 1.216 4.832s-.416 3.456-1.248 4.864a8.233 8.233 0 0 1-3.36 3.2c-1.408.747-2.987 1.12-4.736 1.12zm0-4.736c1.045 0 1.93-.384 2.656-1.152.746-.768 1.12-1.867 1.12-3.296 0-1.429-.363-2.528-1.088-3.296-.704-.768-1.579-1.152-2.624-1.152-1.067 0-1.952.384-2.656 1.152-.704.747-1.056 1.845-1.056 3.296 0 1.429.341 2.528 1.024 3.296.704.768 1.578 1.152 2.624 1.152zm17.719-10.4c.64-.981 1.44-1.749 2.4-2.304.96-.576 2.026-.864 3.2-.864v5.792h-1.504c-1.366 0-2.39.299-3.072.896-.683.576-1.024 1.6-1.024 3.072V153h-5.472v-17.856h5.472v2.976zM835.521 153l-5.44-7.488V153h-5.472v-23.68h5.472v13.088l5.408-7.264h6.752l-7.424 8.96 7.488 8.896h-6.784zm14.757-5.056-3.552 9.184h-3.488l1.856-9.184h5.184zm8.993-3.904c0-1.835.341-3.445 1.024-4.832.704-1.387 1.653-2.453 2.848-3.2 1.195-.747 2.528-1.12 4-1.12 1.259 0 2.357.256 3.296.768.96.512 1.696 1.184 2.208 2.016v-2.528h5.472V153h-5.472v-2.528c-.533.832-1.28 1.504-2.24 2.016-.939.512-2.037.768-3.296.768-1.451 0-2.773-.373-3.968-1.12-1.195-.768-2.144-1.845-2.848-3.232-.683-1.408-1.024-3.029-1.024-4.864zm13.376.032c0-1.365-.384-2.443-1.152-3.232-.747-.789-1.664-1.184-2.752-1.184-1.088 0-2.016.395-2.784 1.184-.747.768-1.12 1.835-1.12 3.2 0 1.365.373 2.453 1.12 3.264.768.789 1.696 1.184 2.784 1.184 1.088 0 2.005-.395 2.752-1.184.768-.789 1.152-1.867 1.152-3.232zm20.311-9.12c2.09 0 3.754.683 4.992 2.048 1.258 1.344 1.888 3.2 1.888 5.568V153h-5.44v-9.696c0-1.195-.31-2.123-.928-2.784-.619-.661-1.451-.992-2.496-.992-1.046 0-1.878.331-2.496.992-.619.661-.928 1.589-.928 2.784V153h-5.472v-17.856h5.472v2.368c.554-.789 1.301-1.408 2.24-1.856.938-.469 1.994-.704 3.168-.704zm9.594 9.088c0-1.835.342-3.445 1.024-4.832.704-1.387 1.654-2.453 2.848-3.2 1.195-.747 2.528-1.12 4-1.12 1.174 0 2.24.245 3.2.736.982.491 1.75 1.152 2.304 1.984v-8.288h5.472V153h-5.472v-2.56c-.512.853-1.248 1.536-2.208 2.048-.938.512-2.037.768-3.296.768-1.472 0-2.805-.373-4-1.12-1.194-.768-2.144-1.845-2.848-3.232-.682-1.408-1.024-3.029-1.024-4.864zm13.376.032c0-1.365-.384-2.443-1.152-3.232-.746-.789-1.664-1.184-2.752-1.184-1.088 0-2.016.395-2.784 1.184-.746.768-1.12 1.835-1.12 3.2 0 1.365.374 2.453 1.12 3.264.768.789 1.696 1.184 2.784 1.184 1.088 0 2.006-.395 2.752-1.184.768-.789 1.152-1.867 1.152-3.232zm41.844-8.928L952.94 153h-6.048l-2.816-11.584L941.164 153h-6.016l-4.864-17.856h5.472l2.528 12.768 3.008-12.768h5.792l3.04 12.704 2.496-12.704h5.152zm13.063-.192c2.048 0 3.691.683 4.928 2.048 1.237 1.344 1.856 3.2 1.856 5.568V153h-5.44v-9.696c0-1.195-.309-2.123-.928-2.784-.619-.661-1.451-.992-2.496-.992s-1.877.331-2.496.992-.928 1.589-.928 2.784V153h-5.472v-23.68h5.472v8.224c.555-.789 1.312-1.419 2.272-1.888.96-.469 2.037-.704 3.232-.704zm9.499 9.088c0-1.835.341-3.445 1.024-4.832.704-1.387 1.653-2.453 2.848-3.2 1.194-.747 2.528-1.12 4-1.12 1.258 0 2.357.256 3.296.768.96.512 1.696 1.184 2.208 2.016v-2.528h5.472V153h-5.472v-2.528c-.534.832-1.28 1.504-2.24 2.016-.939.512-2.038.768-3.296.768-1.451 0-2.774-.373-3.968-1.12-1.195-.768-2.144-1.845-2.848-3.232-.683-1.408-1.024-3.029-1.024-4.864zm13.376.032c0-1.365-.384-2.443-1.152-3.232-.747-.789-1.664-1.184-2.752-1.184-1.088 0-2.016.395-2.784 1.184-.747.768-1.12 1.835-1.12 3.2 0 1.365.373 2.453 1.12 3.264.768.789 1.696 1.184 2.784 1.184 1.088 0 2.005-.395 2.752-1.184.768-.789 1.152-1.867 1.152-3.232zm19.38 4.288V153h-2.78c-1.99 0-3.53-.48-4.64-1.44-1.11-.981-1.67-2.571-1.67-4.768v-7.104h-2.17v-4.544h2.17v-4.352h5.48v4.352h3.58v4.544h-3.58v7.168c0 .533.12.917.38 1.152.26.235.68.352 1.28.352h1.95zm-696.257 34.784-11.2 26.336h-5.888l4.096-9.088-7.264-17.248h6.112l4.128 11.168 4.096-11.168h5.92zm10.107 18.112c-1.749 0-3.328-.373-4.736-1.12a8.337 8.337 0 0 1-3.296-3.2c-.789-1.387-1.184-3.008-1.184-4.864 0-1.835.405-3.445 1.216-4.832.811-1.408 1.92-2.485 3.328-3.232 1.408-.747 2.987-1.12 4.736-1.12 1.749 0 3.328.373 4.736 1.12 1.408.747 2.517 1.824 3.328 3.232.811 1.387 1.216 2.997 1.216 4.832s-.416 3.456-1.248 4.864a8.233 8.233 0 0 1-3.36 3.2c-1.408.747-2.987 1.12-4.736 1.12zm0-4.736c1.045 0 1.931-.384 2.656-1.152.747-.768 1.12-1.867 1.12-3.296 0-1.429-.363-2.528-1.088-3.296-.704-.768-1.579-1.152-2.624-1.152-1.067 0-1.952.384-2.656 1.152-.704.747-1.056 1.845-1.056 3.296 0 1.429.341 2.528 1.024 3.296.704.768 1.579 1.152 2.624 1.152zm29.879-13.376V201h-5.472v-2.432c-.555.789-1.312 1.429-2.272 1.92-.939.469-1.984.704-3.136.704-1.365 0-2.571-.299-3.616-.896-1.045-.619-1.856-1.504-2.432-2.656-.576-1.152-.864-2.507-.864-4.064v-10.432h5.44v9.696c0 1.195.309 2.123.928 2.784.619.661 1.451.992 2.496.992 1.067 0 1.909-.331 2.528-.992s.928-1.589.928-2.784v-9.696h5.472zm36.344 0L388.331 201h-6.048l-2.816-11.584L376.555 201h-6.016l-4.864-17.856h5.472l2.528 12.768 3.008-12.768h5.792l3.04 12.704 2.496-12.704h5.152zm.999 8.896c0-1.835.341-3.445 1.024-4.832.704-1.387 1.653-2.453 2.848-3.2 1.194-.747 2.528-1.12 4-1.12 1.258 0 2.357.256 3.296.768.96.512 1.696 1.184 2.208 2.016v-2.528h5.472V201h-5.472v-2.528c-.534.832-1.28 1.504-2.24 2.016-.939.512-2.038.768-3.296.768-1.451 0-2.774-.373-3.968-1.12-1.195-.768-2.144-1.845-2.848-3.232-.683-1.408-1.024-3.029-1.024-4.864zm13.376.032c0-1.365-.384-2.443-1.152-3.232-.747-.789-1.664-1.184-2.752-1.184-1.088 0-2.016.395-2.784 1.184-.747.768-1.12 1.835-1.12 3.2 0 1.365.373 2.453 1.12 3.264.768.789 1.696 1.184 2.784 1.184 1.088 0 2.005-.395 2.752-1.184.768-.789 1.152-1.867 1.152-3.232zm20.31-9.12c2.091 0 3.755.683 4.992 2.048 1.259 1.344 1.888 3.2 1.888 5.568V201h-5.44v-9.696c0-1.195-.309-2.123-.928-2.784-.618-.661-1.45-.992-2.496-.992-1.045 0-1.877.331-2.496.992-.618.661-.928 1.589-.928 2.784V201h-5.472v-17.856h5.472v2.368c.555-.789 1.302-1.408 2.24-1.856.939-.469 1.995-.704 3.168-.704zm20.635 13.408V201h-2.784c-1.984 0-3.531-.48-4.64-1.44-1.109-.981-1.664-2.571-1.664-4.768v-7.104h-2.176v-4.544h2.176v-4.352h5.472v4.352h3.584v4.544h-3.584v7.168c0 .533.128.917.384 1.152.256.235.683.352 1.28.352h1.952zm19.781 0V201h-2.784c-1.984 0-3.531-.48-4.64-1.44-1.109-.981-1.664-2.571-1.664-4.768v-7.104H457v-4.544h2.176v-4.352h5.472v4.352h3.584v4.544h-3.584v7.168c0 .533.128.917.384 1.152.256.235.683.352 1.28.352h1.952zm11.176 4.896c-1.749 0-3.328-.373-4.736-1.12a8.337 8.337 0 0 1-3.296-3.2c-.789-1.387-1.184-3.008-1.184-4.864 0-1.835.405-3.445 1.216-4.832.811-1.408 1.92-2.485 3.328-3.232 1.408-.747 2.987-1.12 4.736-1.12 1.749 0 3.328.373 4.736 1.12 1.408.747 2.517 1.824 3.328 3.232.811 1.387 1.216 2.997 1.216 4.832s-.416 3.456-1.248 4.864a8.233 8.233 0 0 1-3.36 3.2c-1.408.747-2.987 1.12-4.736 1.12zm0-4.736c1.045 0 1.931-.384 2.656-1.152.747-.768 1.12-1.867 1.12-3.296 0-1.429-.363-2.528-1.088-3.296-.704-.768-1.579-1.152-2.624-1.152-1.067 0-1.952.384-2.656 1.152-.704.747-1.056 1.845-1.056 3.296 0 1.429.341 2.528 1.024 3.296.704.768 1.579 1.152 2.624 1.152zm26.292 4.736c-1.557 0-2.944-.267-4.16-.8-1.216-.533-2.176-1.259-2.88-2.176a5.855 5.855 0 0 1-1.184-3.136h5.408c.064.619.352 1.12.864 1.504.512.384 1.142.576 1.888.576.683 0 1.206-.128 1.568-.384.384-.277.576-.629.576-1.056 0-.512-.266-.885-.8-1.12-.533-.256-1.397-.533-2.592-.832-1.28-.299-2.346-.608-3.2-.928a5.747 5.747 0 0 1-2.208-1.568c-.618-.725-.928-1.696-.928-2.912 0-1.024.278-1.952.832-2.784.576-.853 1.408-1.525 2.496-2.016 1.11-.491 2.422-.736 3.936-.736 2.24 0 4 .555 5.28 1.664 1.302 1.109 2.048 2.581 2.24 4.416h-5.056c-.085-.619-.362-1.109-.832-1.472-.448-.363-1.045-.544-1.792-.544-.64 0-1.13.128-1.472.384-.341.235-.512.565-.512.992 0 .512.267.896.8 1.152.555.256 1.408.512 2.56.768 1.323.341 2.4.683 3.232 1.024.832.32 1.558.853 2.176 1.6.64.725.971 1.707.992 2.944a4.707 4.707 0 0 1-.896 2.816c-.576.811-1.418 1.451-2.528 1.92-1.088.469-2.357.704-3.808.704zm27.412-9.472c0 .512-.032 1.045-.096 1.6h-12.384c.085 1.109.437 1.963 1.056 2.56.64.576 1.419.864 2.336.864 1.365 0 2.315-.576 2.848-1.728h5.824a7.901 7.901 0 0 1-1.632 3.168c-.768.939-1.739 1.675-2.912 2.208-1.173.533-2.485.8-3.936.8-1.749 0-3.307-.373-4.672-1.12a7.968 7.968 0 0 1-3.2-3.2c-.768-1.387-1.152-3.008-1.152-4.864 0-1.856.373-3.477 1.12-4.864a7.968 7.968 0 0 1 3.2-3.2c1.365-.747 2.933-1.12 4.704-1.12 1.728 0 3.264.363 4.608 1.088a7.708 7.708 0 0 1 3.136 3.104c.768 1.344 1.152 2.912 1.152 4.704zm-5.6-1.44c0-.939-.32-1.685-.96-2.24-.64-.555-1.44-.832-2.4-.832-.917 0-1.696.267-2.336.8-.619.533-1.003 1.291-1.152 2.272h6.848zm25.319 1.44c0 .512-.032 1.045-.096 1.6h-12.384c.085 1.109.437 1.963 1.056 2.56.64.576 1.419.864 2.336.864 1.365 0 2.315-.576 2.848-1.728h5.824a7.901 7.901 0 0 1-1.632 3.168c-.768.939-1.739 1.675-2.912 2.208-1.173.533-2.485.8-3.936.8-1.749 0-3.307-.373-4.672-1.12a7.968 7.968 0 0 1-3.2-3.2c-.768-1.387-1.152-3.008-1.152-4.864 0-1.856.373-3.477 1.12-4.864a7.968 7.968 0 0 1 3.2-3.2c1.365-.747 2.933-1.12 4.704-1.12 1.728 0 3.264.363 4.608 1.088a7.708 7.708 0 0 1 3.136 3.104c.768 1.344 1.152 2.912 1.152 4.704zm-5.6-1.44c0-.939-.32-1.685-.96-2.24-.64-.555-1.44-.832-2.4-.832-.917 0-1.696.267-2.336.8-.619.533-1.003 1.291-1.152 2.272h6.848zm18.02-9.056c-.96 0-1.749-.277-2.368-.832a2.823 2.823 0 0 1-.896-2.112c0-.853.299-1.557.896-2.112.619-.576 1.408-.864 2.368-.864.939 0 1.707.288 2.304.864.619.555.928 1.259.928 2.112 0 .832-.309 1.536-.928 2.112-.597.555-1.365.832-2.304.832zm2.72 1.856V201h-5.472v-17.856h5.472zm14.845-.192c2.091 0 3.755.683 4.992 2.048 1.259 1.344 1.888 3.2 1.888 5.568V201h-5.44v-9.696c0-1.195-.309-2.123-.928-2.784-.618-.661-1.45-.992-2.496-.992-1.045 0-1.877.331-2.496.992-.618.661-.928 1.589-.928 2.784V201h-5.472v-17.856h5.472v2.368c.555-.789 1.302-1.408 2.24-1.856.939-.469 1.995-.704 3.168-.704zm35.704.192-11.2 26.336h-5.888l4.096-9.088-7.264-17.248h6.112l4.128 11.168 4.096-11.168h5.92zm10.107 18.112c-1.749 0-3.328-.373-4.736-1.12a8.337 8.337 0 0 1-3.296-3.2c-.789-1.387-1.184-3.008-1.184-4.864 0-1.835.405-3.445 1.216-4.832.811-1.408 1.92-2.485 3.328-3.232 1.408-.747 2.987-1.12 4.736-1.12 1.749 0 3.328.373 4.736 1.12 1.408.747 2.517 1.824 3.328 3.232.811 1.387 1.216 2.997 1.216 4.832s-.416 3.456-1.248 4.864a8.233 8.233 0 0 1-3.36 3.2c-1.408.747-2.987 1.12-4.736 1.12zm0-4.736c1.045 0 1.931-.384 2.656-1.152.747-.768 1.12-1.867 1.12-3.296 0-1.429-.363-2.528-1.088-3.296-.704-.768-1.579-1.152-2.624-1.152-1.067 0-1.952.384-2.656 1.152-.704.747-1.056 1.845-1.056 3.296 0 1.429.341 2.528 1.024 3.296.704.768 1.579 1.152 2.624 1.152zm29.879-13.376V201h-5.472v-2.432c-.555.789-1.312 1.429-2.272 1.92-.939.469-1.984.704-3.136.704-1.365 0-2.571-.299-3.616-.896-1.045-.619-1.856-1.504-2.432-2.656-.576-1.152-.864-2.507-.864-4.064v-10.432h5.44v9.696c0 1.195.309 2.123.928 2.784.619.661 1.451.992 2.496.992 1.067 0 1.909-.331 2.528-.992s.928-1.589.928-2.784v-9.696h5.472zm9.402 2.976c.64-.981 1.44-1.749 2.4-2.304.96-.576 2.027-.864 3.2-.864v5.792h-1.504c-1.365 0-2.389.299-3.072.896-.682.576-1.024 1.6-1.024 3.072V201h-5.472v-17.856h5.472v2.976zm17.749-4.832c-.96 0-1.749-.277-2.368-.832a2.823 2.823 0 0 1-.896-2.112c0-.853.299-1.557.896-2.112.619-.576 1.408-.864 2.368-.864.939 0 1.707.288 2.304.864.619.555.928 1.259.928 2.112 0 .832-.309 1.536-.928 2.112-.597.555-1.365.832-2.304.832zm2.72 1.856V201h-5.472v-17.856h5.472zm14.846-.192c2.09 0 3.754.683 4.992 2.048 1.258 1.344 1.888 3.2 1.888 5.568V201h-5.44v-9.696c0-1.195-.31-2.123-.928-2.784-.619-.661-1.451-.992-2.496-.992-1.046 0-1.878.331-2.496.992-.619.661-.928 1.589-.928 2.784V201h-5.472v-17.856h5.472v2.368c.554-.789 1.301-1.408 2.24-1.856.938-.469 1.994-.704 3.168-.704zm16.154 2.72c.512-.832 1.248-1.504 2.208-2.016.96-.512 2.059-.768 3.296-.768 1.472 0 2.805.373 4 1.12 1.195.747 2.133 1.813 2.816 3.2.704 1.387 1.056 2.997 1.056 4.832s-.352 3.456-1.056 4.864c-.683 1.387-1.621 2.464-2.816 3.232-1.195.747-2.528 1.12-4 1.12-1.259 0-2.357-.245-3.296-.736-.939-.512-1.675-1.184-2.208-2.016V201h-5.472v-23.68h5.472v8.352zm7.808 6.368c0-1.365-.384-2.432-1.152-3.2-.747-.789-1.675-1.184-2.784-1.184-1.088 0-2.016.395-2.784 1.184-.747.789-1.12 1.867-1.12 3.232 0 1.365.373 2.443 1.12 3.232.768.789 1.696 1.184 2.784 1.184 1.088 0 2.016-.395 2.784-1.184.768-.811 1.152-1.899 1.152-3.264zm16.567 9.216c-1.749 0-3.328-.373-4.736-1.12a8.337 8.337 0 0 1-3.296-3.2c-.789-1.387-1.184-3.008-1.184-4.864 0-1.835.405-3.445 1.216-4.832.811-1.408 1.92-2.485 3.328-3.232 1.408-.747 2.987-1.12 4.736-1.12 1.749 0 3.328.373 4.736 1.12 1.408.747 2.517 1.824 3.328 3.232.811 1.387 1.216 2.997 1.216 4.832s-.416 3.456-1.248 4.864a8.233 8.233 0 0 1-3.36 3.2c-1.408.747-2.987 1.12-4.736 1.12zm0-4.736c1.045 0 1.931-.384 2.656-1.152.747-.768 1.12-1.867 1.12-3.296 0-1.429-.363-2.528-1.088-3.296-.704-.768-1.579-1.152-2.624-1.152-1.067 0-1.952.384-2.656 1.152-.704.747-1.056 1.845-1.056 3.296 0 1.429.341 2.528 1.024 3.296.704.768 1.579 1.152 2.624 1.152zm22.807 4.48-3.424-4.96-2.88 4.96h-5.92l5.888-9.12-6.048-8.736h6.144l3.424 4.928 2.88-4.928h5.92l-5.984 8.992 6.144 8.864h-6.144zm15.452-23.264-.64 15.328h-4.64l-.64-15.328h5.92zm-2.88 23.52c-.96 0-1.749-.277-2.368-.832a2.823 2.823 0 0 1-.896-2.112c0-.853.299-1.568.896-2.144.619-.576 1.408-.864 2.368-.864.939 0 1.707.288 2.304.864.619.576.928 1.291.928 2.144 0 .832-.309 1.536-.928 2.112-.597.555-1.365.832-2.304.832z"/><rect width="100" height="40" x="941" y="38" fill="#E4E4E4" rx="17"/><path fill="#333" d="M964.424 62.598c-.719 0-1.363-.117-1.932-.35a3.198 3.198 0 0 1-1.372-1.036c-.336-.457-.513-1.008-.532-1.652h2.548c.037.364.163.644.378.84.215.187.495.28.84.28.355 0 .635-.08.84-.238.205-.168.308-.397.308-.686a.793.793 0 0 0-.252-.602 1.869 1.869 0 0 0-.602-.392 9.048 9.048 0 0 0-1.008-.35 11.02 11.02 0 0 1-1.554-.588 2.871 2.871 0 0 1-1.036-.868c-.289-.383-.434-.882-.434-1.498 0-.915.331-1.629.994-2.142.663-.523 1.526-.784 2.59-.784 1.083 0 1.955.261 2.618.784.663.513 1.017 1.232 1.064 2.156h-2.59c-.019-.317-.135-.565-.35-.742-.215-.187-.49-.28-.826-.28-.289 0-.523.08-.7.238-.177.15-.266.369-.266.658 0 .317.149.565.448.742.299.177.765.369 1.4.574.635.215 1.148.42 1.54.616.401.196.747.48 1.036.854.289.373.434.854.434 1.442 0 .56-.145 1.069-.434 1.526-.28.457-.691.821-1.232 1.092-.541.27-1.181.406-1.918.406zm9.411-2.128v2.03h-1.218c-.868 0-1.544-.21-2.03-.63-.485-.43-.728-1.125-.728-2.086v-3.108h-.952v-1.988h.952v-1.904h2.394v1.904h1.568v1.988h-1.568v3.136c0 .233.056.401.168.504.112.103.299.154.56.154h.854zm8.698-2.002c0 .224-.014.457-.042.7h-5.418c.037.485.191.859.462 1.12.28.252.62.378 1.022.378.597 0 1.012-.252 1.246-.756h2.548a3.46 3.46 0 0 1-.714 1.386c-.336.41-.761.733-1.274.966a4.12 4.12 0 0 1-1.722.35c-.766 0-1.447-.163-2.044-.49a3.481 3.481 0 0 1-1.4-1.4c-.336-.607-.504-1.316-.504-2.128s.163-1.521.49-2.128a3.481 3.481 0 0 1 1.4-1.4c.597-.327 1.283-.49 2.058-.49.756 0 1.428.159 2.016.476.588.317 1.045.77 1.372 1.358.336.588.504 1.274.504 2.058zm-2.45-.63c0-.41-.14-.737-.42-.98-.28-.243-.63-.364-1.05-.364-.402 0-.742.117-1.022.35-.271.233-.439.565-.504.994h2.996zm6.107-2.044c.233-.364.555-.658.966-.882.41-.224.891-.336 1.442-.336.644 0 1.227.163 1.75.49.522.327.933.793 1.232 1.4.308.607.462 1.311.462 2.114 0 .803-.154 1.512-.462 2.128-.299.607-.71 1.078-1.232 1.414a3.235 3.235 0 0 1-1.75.49c-.542 0-1.022-.112-1.442-.336a2.64 2.64 0 0 1-.966-.868v4.816h-2.394V54.688h2.394v1.106zm3.416 2.786c0-.597-.168-1.064-.504-1.4a1.61 1.61 0 0 0-1.218-.518c-.476 0-.882.173-1.218.518-.327.345-.49.817-.49 1.414s.163 1.069.49 1.414c.336.345.742.518 1.218.518s.882-.173 1.218-.518c.336-.355.504-.83.504-1.428zm9.303 2.002a48.883 48.883 0 0 0 2.591-2.212c.53-.485.98-.994 1.34-1.526.37-.532.55-1.05.55-1.554 0-.383-.09-.681-.27-.896-.17-.215-.44-.322-.79-.322-.36 0-.64.135-.84.406-.2.261-.3.635-.3 1.12h-2.309c.019-.793.187-1.456.504-1.988a3.04 3.04 0 0 1 1.275-1.176 4.057 4.057 0 0 1 1.76-.378c1.11 0 1.95.285 2.51.854.57.57.85 1.311.85 2.226 0 .999-.34 1.927-1.02 2.786-.68.85-1.55 1.68-2.6 2.492h3.78v1.946h-7.031v-1.778zM1012.56 49.2l-3.75 15.918h-2.31l3.75-15.918h2.31zm.86 5.964c.04-.999.36-1.769.98-2.31.62-.541 1.45-.812 2.51-.812.7 0 1.29.121 1.79.364s.88.574 1.13.994c.26.42.39.891.39 1.414 0 .616-.15 1.12-.46 1.512-.31.383-.67.644-1.08.784v.056c.54.177.96.471 1.26.882.31.41.47.938.47 1.582 0 .579-.14 1.092-.41 1.54-.26.439-.65.784-1.16 1.036-.51.252-1.11.378-1.81.378-1.12 0-2.01-.275-2.69-.826-.66-.55-1.01-1.381-1.05-2.492h2.33c.01.41.12.737.35.98.22.233.55.35.98.35.36 0 .64-.103.84-.308.2-.215.31-.495.31-.84 0-.448-.15-.77-.44-.966-.28-.205-.73-.308-1.36-.308h-.44v-1.946h.44c.48 0 .86-.08 1.15-.238.3-.168.45-.462.45-.882 0-.336-.09-.597-.28-.784-.19-.187-.44-.28-.77-.28-.36 0-.62.107-.8.322-.17.215-.26.48-.29.798h-2.34z"/><defs><filter id="a" width="1079" height="483" x="0" y="0" color-interpolation-filters="sRGB" filterUnits="userSpaceOnUse"><feFlood flood-opacity="0" result="BackgroundImageFix"/><feColorMatrix in="SourceAlpha" result="hardAlpha" values="0 0 0 0 0 0 0 0 0 0 0 0 0 0 0 0 0 0 127 0"/><feMorphology in="SourceAlpha" operator="dilate" radius="3" result="effect1_dropShadow_134_600"/><feOffset/><feGaussianBlur stdDeviation="10.5"/><feComposite in2="hardAlpha" operator="out"/><feColorMatrix values="0 0 0 0 0.341176 0 0 0 0 0.235294 0 0 0 0 1 0 0 0 0.38 0"/><feBlend in2="BackgroundImageFix" result="effect1_dropShadow_134_600"/><feBlend in="SourceGraphic" in2="effect1_dropShadow_134_600" result="shape"/></filter></defs></svg>