<svg xmlns="http://www.w3.org/2000/svg" width="209" height="44" fill="none"><path fill="#573CFF" fill-rule="evenodd" d="M67.72 31.92c1.76.933 3.733 1.4 5.92 1.4s4.16-.467 5.92-1.4a10.286 10.286 0 0 0 4.2-4c1.04-1.76 1.56-3.787 1.56-6.08s-.507-4.307-1.52-6.04c-1.013-1.76-2.4-3.107-4.16-4.04-1.76-.933-3.733-1.4-5.92-1.4s-4.16.467-5.92 1.4c-1.76.933-3.147 2.28-4.16 4.04-1.013 1.733-1.52 3.747-1.52 6.04 0 2.32.493 4.347 1.48 6.08 1.013 1.733 2.387 3.067 4.12 4zm9.24-5.96c-.907.96-2.013 1.44-3.32 1.44s-2.4-.48-3.28-1.44c-.853-.96-1.28-2.333-1.28-4.12 0-1.813.44-3.187 1.32-4.12.88-.96 1.987-1.44 3.32-1.44 1.307 0 2.4.48 3.28 1.44.907.96 1.36 2.333 1.36 4.12s-.467 3.16-1.4 4.12zm21.829-14.44c-1.2.693-2.2 1.653-3 2.88v-3.72h-6.84V33h6.84V22.64c0-1.84.426-3.12 1.28-3.84.853-.747 2.133-1.12 3.84-1.12h1.88v-7.24c-1.467 0-2.8.36-4 1.08zm7.189 4.24c-.853 1.733-1.28 3.747-1.28 6.04s.427 4.32 1.28 6.08c.88 1.733 2.067 3.08 3.56 4.04 1.493.933 3.147 1.4 4.96 1.4 1.573 0 2.947-.32 4.12-.96 1.2-.64 2.133-1.48 2.8-2.52V33h6.84V10.68h-6.84v3.16c-.64-1.04-1.56-1.88-2.76-2.52-1.173-.64-2.547-.96-4.12-.96-1.84 0-3.507.467-5 1.4-1.493.933-2.68 2.267-3.56 4zm14 2.04c.96.987 1.44 2.333 1.44 4.04 0 1.707-.48 3.053-1.44 4.04-.933.987-2.08 1.48-3.44 1.48-1.36 0-2.52-.493-3.48-1.48-.933-1.013-1.4-2.373-1.4-4.08 0-1.707.467-3.04 1.4-4 .96-.987 2.12-1.48 3.48-1.48 1.36 0 2.507.493 3.44 1.48zm13.269-2.04c-.934 1.733-1.4 3.76-1.4 6.08 0 2.32.466 4.347 1.4 6.08.96 1.733 2.28 3.067 3.96 4 1.706.933 3.653 1.4 5.84 1.4 2.773 0 5.106-.747 7-2.24 1.893-1.493 3.133-3.547 3.72-6.16h-7.28c-.614 1.707-1.8 2.56-3.56 2.56-1.254 0-2.254-.48-3-1.44-.747-.987-1.12-2.387-1.12-4.2 0-1.813.373-3.2 1.12-4.16.746-.987 1.746-1.48 3-1.48 1.76 0 2.946.853 3.56 2.56h7.28c-.587-2.667-1.827-4.733-3.72-6.2-1.867-1.467-4.2-2.2-7-2.2-2.187 0-4.134.467-5.84 1.4-1.68.933-3 2.267-3.96 4zm24.658-8.44c.774.693 1.76 1.04 2.96 1.04 1.174 0 2.134-.347 2.88-1.04.774-.72 1.16-1.6 1.16-2.64 0-1.067-.386-1.947-1.16-2.64-.746-.72-1.706-1.08-2.88-1.08-1.2 0-2.186.36-2.96 1.08-.746.693-1.12 1.573-1.12 2.64 0 1.04.374 1.92 1.12 2.64zm6.36 25.68V10.68h-6.84V33h6.84zm17.397 0v-5.8h-2.44c-.746 0-1.28-.147-1.6-.44-.32-.293-.48-.773-.48-1.44v-8.96h4.48v-5.68h-4.48V5.24h-6.84v5.44h-2.72v5.68h2.72v8.88c0 2.747.694 4.733 2.08 5.96 1.387 1.2 3.32 1.8 5.8 1.8h3.48zm12.61 10.6 14-32.92h-7.4l-5.12 13.96-5.16-13.96h-7.64l9.08 21.56-5.12 11.36h7.36zM47.366 26.628c.34.56 1.336 2.2 1.92-.128l7.991-20.512C57.677 4.658 59.435 2 63.273 2H82c4 .5 4 4.5 0 5H67.5c-4.005 0-4.192.47-4.915 2.287L62.5 9.5 51.5 36c-1.2 3.19-3.328 1.317-4.213-.327C29.01 1.707 15.876 4.495 5.577 6.68c-1.19.253-2.341.497-3.458.676-3.838-1.276-1.6-2.393 0-2.792C27.7-3.012 39.292 12.94 47.287 26.5c.02.03.046.074.08.128z" clip-rule="evenodd"/></svg>